<?xml version="1.0" standalone="no"?>
<!DOCTYPE svg PUBLIC "-//W3C//DTD SVG 1.1//EN" "http://www.w3.org/Graphics/SVG/1.1/DTD/svg11.dtd" >
<svg xmlns="http://www.w3.org/2000/svg">
<metadata>Generated by IcoMoon</metadata>
<defs>
<font id="icomoon" horiz-adv-x="1024">
<font-face units-per-em="1024" ascent="960" descent="-64" />
<missing-glyph horiz-adv-x="1024" />
<glyph unicode="&#x20;" horiz-adv-x="512" d="" />
<glyph unicode="&#xe900;" glyph-name="arrow-down" d="M460.8 144.794l-310.835 310.835-72.397-72.397 434.432-434.432 434.432 434.432-72.397 72.397-310.835-310.835v828.006h-102.4z" />
<glyph unicode="&#xe901;" glyph-name="arrow-left" d="M195.994 512l310.835 310.835-72.397 72.397-434.432-434.432 434.432-434.432 72.397 72.397-310.835 310.835h828.006v102.4h-828.006z" />
<glyph unicode="&#xe902;" glyph-name="arrow-right" d="M828.006 512l-310.835 310.835 72.397 72.397 434.432-434.432-434.432-434.432-72.397 72.397 310.835 310.835h-828.006v102.4z" />
<glyph unicode="&#xe903;" glyph-name="arrow-thin-down" d="M460.8 144.794l-310.835 310.835-72.397-72.397 434.432-434.432 434.432 434.432-72.397 72.397-310.835-310.835v828.006h-102.4z" />
<glyph unicode="&#xe904;" glyph-name="arrow-thin-left" d="M195.994 512l310.835 310.835-72.397 72.397-434.432-434.432 434.432-434.432 72.397 72.397-310.835 310.835h828.006v102.4h-828.006z" />
<glyph unicode="&#xe905;" glyph-name="arrow-thin-right" d="M828.006 512l-310.835 310.835 72.397 72.397 434.432-434.432-434.432-434.432-72.397 72.397 310.835 310.835h-828.006v102.4z" />
<glyph unicode="&#xe906;" glyph-name="arrow-thin-up" d="M460.8 776.806l-310.835-310.835-72.397 72.397 434.432 434.432 434.432-434.432-72.397-72.397-310.835 310.835v-828.006h-102.4v828.006z" />
<glyph unicode="&#xe907;" glyph-name="arrow-up" d="M460.8 776.806l-310.835-310.835-72.397 72.397 434.432 434.432 434.432-434.432-72.397-72.397-310.835 310.835v-828.006h-102.4v828.006z" />
<glyph unicode="&#xe908;" glyph-name="checkmark" d="M0 409.6l102.4 102.4 256-256 563.2 563.2 102.4-102.4-665.6-665.6z" />
<glyph unicode="&#xe909;" glyph-name="cheveron-down" d="M475.802 309.76l36.198-36.198 289.638 289.638-72.397 72.397-217.242-217.19-217.242 217.19-72.397-72.397z" />
<glyph unicode="&#xe90a;" glyph-name="cheveron-left" d="M360.96 496.998l-36.198-36.198 289.638-289.638 72.397 72.397-217.19 217.242 217.19 217.242-72.397 72.397z" />
<glyph unicode="&#xe90b;" glyph-name="cheveron-right" d="M663.040 424.602l36.198 36.198-289.638 289.638-72.397-72.397 217.19-217.242-217.19-217.242 72.397-72.397 253.44 253.44z" />
<glyph unicode="&#xe90c;" glyph-name="cheveron-up" d="M548.198 611.84l-36.198 36.198-289.638-289.638 72.397-72.397 217.242 217.19 217.242-217.19 72.397 72.397z" />
<glyph unicode="&#xe90d;" glyph-name="dots-horizontal-triple" d="M512 358.4c-56.554 0-102.4 45.846-102.4 102.4s45.846 102.4 102.4 102.4v0c56.554 0 102.4-45.846 102.4-102.4s-45.846-102.4-102.4-102.4v0zM512 665.6c-56.554 0-102.4 45.846-102.4 102.4s45.846 102.4 102.4 102.4v0c56.554 0 102.4-45.846 102.4-102.4s-45.846-102.4-102.4-102.4v0zM512 51.2c-56.554 0-102.4 45.846-102.4 102.4s45.846 102.4 102.4 102.4v0c56.554 0 102.4-45.846 102.4-102.4s-45.846-102.4-102.4-102.4v0z" />
<glyph unicode="&#xe90e;" glyph-name="layers1" d="M512 921.6l512-307.2-512-307.2-512 307.2 512 307.2zM853.504 409.6l170.496-102.4-512-307.2-512 307.2 170.496 102.4 341.504-204.8 341.504 204.8z" />
<glyph unicode="&#xe90f;" glyph-name="menu1" d="M0 819.2h1024v-102.4h-1024v102.4zM0 512h1024v-102.4h-1024v102.4zM0 204.8h1024v-102.4h-1024v102.4z" />
<glyph unicode="&#xe910;" glyph-name="notifications-outline" d="M307.2 563.2v-358.4h409.6v358.4c0 113.108-91.692 204.8-204.8 204.8s-204.8-91.692-204.8-204.8v0zM411.136 853.504c-0.815 4.852-1.28 10.442-1.28 16.14 0 56.554 45.846 102.4 102.4 102.4s102.4-45.846 102.4-102.4c0-5.699-0.465-11.288-1.361-16.734l0.081 0.593c120.875-43.156 205.824-156.653 205.824-289.991 0-0.11 0-0.22 0-0.33v0.017-307.2l153.6-102.4v-51.2h-921.6v51.2l153.6 102.4v307.2c0 0.040 0 0.087 0 0.135 0 133.528 85.193 247.159 204.189 289.503l2.147 0.666zM614.4 51.2c0-56.554-45.846-102.4-102.4-102.4s-102.4 45.846-102.4 102.4v0h204.8z" />
<glyph unicode="&#xe911;" glyph-name="share-alt" d="M260.096 350.208c-27.575-26.972-65.35-43.615-107.012-43.615-84.548 0-153.088 68.54-153.088 153.088 0 0.393 0.001 0.787 0.004 1.179v-0.060c0.054 84.79 68.802 153.505 153.6 153.505 41.373 0 78.926-16.358 106.544-42.959l-0.048 0.046 457.728 228.864c-0.768 5.77-1.206 12.441-1.206 19.214 0 84.831 68.769 153.6 153.6 153.6s153.6-68.769 153.6-153.6c0-84.831-68.769-153.6-153.6-153.6-41.285 0-78.765 16.288-106.366 42.788l0.052-0.050-457.728-228.864c0.739-5.688 1.161-12.267 1.161-18.944s-0.422-13.256-1.24-19.711l0.079 0.767 457.728-228.864c27.575 26.972 65.35 43.615 107.012 43.615 84.548 0 153.088-68.54 153.088-153.088 0-0.393-0.001-0.787-0.004-1.179v0.060c-0.727-84.277-69.215-152.316-153.595-152.316-84.831 0-153.6 68.769-153.6 153.6 0 6.223 0.37 12.36 1.089 18.389l-0.071-0.729-457.728 228.864z" />
<glyph unicode="&#xe912;" glyph-name="stand-by" d="M212.992 759.808l72.704-72.704c-81.127-66.138-132.521-166.076-132.521-278.017 0-197.656 160.232-357.888 357.888-357.888 0.329 0 0.659 0 0.988 0.001h-0.051c197.722 0.287 357.896 160.638 357.896 358.4 0 111.594-51.003 211.277-130.969 277.008l-0.622 0.496 72.704 72.704c99.127-85.029 161.536-210.425 161.536-350.396 0-254.493-206.307-460.8-460.8-460.8s-460.8 206.307-460.8 460.8c0 139.972 62.408 265.367 160.917 349.878l0.619 0.518zM460.8 972.8h102.4v-409.6h-102.4v409.6z" />
<glyph unicode="&#xe913;" glyph-name="time1" d="M512-51.2c-282.77 0-512 229.23-512 512s229.23 512 512 512v0c282.77 0 512-229.23 512-512s-229.23-512-512-512v0zM512 51.2c226.216 0 409.6 183.384 409.6 409.6s-183.384 409.6-409.6 409.6v0c-226.216 0-409.6-183.384-409.6-409.6s183.384-409.6 409.6-409.6v0zM460.8 439.808v328.192h102.4v-286.208l202.24-202.24-72.192-72.192-232.448 232.448z" />
<glyph unicode="&#xe914;" glyph-name="zoom-in" d="M660.48 239.616c-68.622-53.712-156.164-86.131-251.277-86.131-226.216 0-409.6 183.384-409.6 409.6s183.384 409.6 409.6 409.6c226.216 0 409.6-183.384 409.6-409.6 0-95.113-32.419-182.654-86.809-252.177l0.678 0.9 273.92-272.896-72.704-72.704-272.896 273.408zM409.6 256c169.662 0 307.2 137.538 307.2 307.2s-137.538 307.2-307.2 307.2v0c-169.662 0-307.2-137.538-307.2-307.2s137.538-307.2 307.2-307.2v0zM358.4 614.4v102.4h102.4v-102.4h102.4v-102.4h-102.4v-102.4h-102.4v102.4h-102.4v102.4h102.4z" />
<glyph unicode="&#xe915;" glyph-name="zoom-out" d="M660.48 239.616c-68.622-53.712-156.164-86.131-251.277-86.131-226.216 0-409.6 183.384-409.6 409.6s183.384 409.6 409.6 409.6c226.216 0 409.6-183.384 409.6-409.6 0-95.113-32.419-182.654-86.809-252.177l0.678 0.9 273.92-272.896-72.704-72.704-272.896 273.408zM409.6 256c169.662 0 307.2 137.538 307.2 307.2s-137.538 307.2-307.2 307.2v0c-169.662 0-307.2-137.538-307.2-307.2s137.538-307.2 307.2-307.2v0zM256 614.4h307.2v-102.4h-307.2v102.4z" />
<glyph unicode="&#xe916;" glyph-name="cell-phone" d="M727.42 960h-430.84c-41.233 0-74.518-33.434-74.518-74.593v-874.889c0-41.121 33.285-74.518 74.518-74.518h430.84c41.159 0 74.518 33.397 74.518 74.518v874.889c0 41.159-33.36 74.593-74.518 74.593zM405.689 914.7h212.696c5.373 0 9.739-8.023 9.739-17.949s-4.366-17.986-9.739-17.986h-212.696c-5.411 0-9.702 8.060-9.702 17.986s4.291 17.949 9.702 17.949zM512.037 9.623c-26.232 0-47.577 21.344-47.577 47.614s21.344 47.539 47.577 47.539c26.158 0 47.502-21.27 47.502-47.539s-21.344-47.614-47.502-47.614zM746.115 172.652h-468.192v661.484h468.192v-661.484z" />
<glyph unicode="&#xe917;" glyph-name="straight-quotes" d="M0 832v-768l384 384v384zM640 832v-768l384 384v384z" />
<glyph unicode="&#xe918;" glyph-name="blocks-with-angled-cuts" d="M1024 64v768l-384-384v-384zM384 64v768l-384-384v-384z" />
<glyph unicode="&#xe919;" glyph-name="business" d="M938.688 864h-138.688v64c0 17.696-14.304 32-32 32s-32-14.304-32-32v-64h-192v64c0 17.696-14.336 32-32 32s-32-14.304-32-32v-64h-192v64c0 17.696-14.336 32-32 32s-32-14.304-32-32v-64h-138.656c-47.136 0-85.344-38.176-85.344-85.312v-757.344c0-47.136 38.208-85.344 85.344-85.344h853.344c47.136 0 85.312 38.208 85.312 85.344v757.344c0 47.136-38.176 85.312-85.312 85.312zM960 21.344c0-11.776-9.568-21.344-21.312-21.344h-853.344c-11.776 0-21.344 9.568-21.344 21.344v757.344c0 11.744 9.568 21.312 21.344 21.312h138.656v-64c0-17.696 14.336-32 32-32s32 14.304 32 32v64h192v-64c0-17.696 14.336-32 32-32s32 14.304 32 32v64h192v-64c0-17.696 14.304-32 32-32s32 14.304 32 32v64h138.688c11.744 0 21.312-9.568 21.312-21.312v-757.344zM224 576h128v-96h-128v96zM224 416h128v-96h-128v96zM224 256h128v-96h-128v96zM448 256h128v-96h-128v96zM448 416h128v-96h-128v96zM448 576h128v-96h-128v96zM672 256h128v-96h-128v96zM672 416h128v-96h-128v96zM672 576h128v-96h-128v96z" />
<glyph unicode="&#xe91a;" glyph-name="technology" d="M512 960c-194.432 0-352-157.568-352-352 0-128.992 118.016-265.696 160.992-385.76 64.096-179.040 56.992-286.24 191.008-286.24 136 0 126.88 106.688 191.008 285.504 43.104 120.32 160.992 258.496 160.992 386.496 0 194.432-157.632 352-352 352zM594.944 90.368l-158.656-19.808c-5.664 16.384-11.744 35.552-19.136 60.576-0.096 0.32-0.224 0.672-0.288 0.992l198.016 24.736c-2.816-9.44-5.824-19.36-8.448-28.256-4.192-14.368-7.936-26.848-11.488-38.24zM407.552 162.944c-5.824 19.264-12.384 39.552-19.68 61.056h248.512c-3.936-11.488-7.872-23.008-11.264-33.888l-217.568-27.168zM512 0c-32.416 0-47.328 3.744-63.904 40l135.616 16.992c-19.648-52.928-33.952-56.992-71.712-56.992zM661.504 288h-298.656c-15.936 34.56-35.072 69.12-53.952 102.944-41.76 74.72-84.896 152-84.896 217.056 0 158.816 129.184 288 288 288s288-129.184 288-288c0-64.576-43.2-142.272-84.992-217.44-18.688-33.696-37.696-68.192-53.504-102.56zM512 800c-105.888 0-192-86.112-192-192 0-8.832 7.168-16 16-16s16 7.168 16 16c0 88.224 71.776 160 160 160 8.832 0 16 7.168 16 16s-7.2 16-16 16z" />
<glyph unicode="&#xe91b;" glyph-name="graph-line-screen" d="M961.69 908.191h-899.335c-34.32 0-62.355-28.080-62.355-62.31v-646.619c0-34.187 28.035-62.31 62.355-62.31h899.335c34.275 0 62.31 28.123 62.31 62.31v646.619c0 34.23-28.035 62.31-62.31 62.31zM946.002 245.094h-868.004v575.695h868.004v-575.695zM396.628 107.377l-117.68-119.568h467.816l-117.68 119.568zM210.531 360.531c22.983 0 41.702 18.677 41.702 41.658 0 4.174-1.23 7.953-2.373 11.777 53.302 42.976 147.473 118.733 190.404 151.822 6.767-4.789 14.633-8.218 23.553-8.218 7.425 0 14.018 2.461 20.037 5.845 27.595-23.466 74.527-63.365 107.836-91.708-0.44-2.416-1.406-4.569-1.406-7.118 0-23.026 18.719-41.702 41.745-41.702s41.745 18.677 41.745 41.702c0 4.087-1.23 7.823-2.328 11.557l107.836 97.378c5.8-3.031 12.040-5.185 19.072-5.185 23.026 0 41.702 18.677 41.702 41.702s-18.677 41.702-41.702 41.702-41.658-18.677-41.658-41.745c0-5.492 1.186-10.721 3.119-15.511-30.146-27.2-76.635-69.21-105.638-95.4-6.46 4.174-13.755 7.25-22.103 7.25-9.843 0-18.457-3.911-25.574-9.579-27.552 23.421-72.111 61.3-103.793 88.237 1.67 4.482 2.856 9.183 2.856 14.28 0 23.026-18.677 41.702-41.702 41.702s-41.702-18.677-41.702-41.702c0-5.097 1.23-9.843 2.901-14.325l-191.414-148.921c-6.68 4.569-14.37 7.91-23.071 7.91-23.026 0-41.702-18.677-41.702-41.702-0.045-23.030 18.632-41.706 41.658-41.706z" />
<glyph unicode="&#xe91c;" glyph-name="smartphone-call" d="M740.264 960h-456.528c-38.034 0-69.164-31.1-69.164-69.164v-885.643c0-38.064 31.13-69.193 69.164-69.193h456.528c38.034 0 69.164 31.071 69.164 69.164v885.672c0 38.064-31.13 69.164-69.164 69.164zM438.974 910.146h146.052c4.623 0 8.368-3.745 8.368-8.397 0-4.623-3.745-8.368-8.368-8.368h-146.052c-4.623 0-8.368 3.745-8.368 8.368 0 4.652 3.745 8.397 8.368 8.397zM512-29.418c-19.105 0-34.582 15.477-34.582 34.611s15.477 34.582 34.582 34.582 34.582-15.448 34.582-34.582-15.477-34.611-34.582-34.611zM761.3 64h-498.6v786.315h498.6v-786.315z" />
<glyph unicode="&#xe91d;" glyph-name="electric-light-bulb" d="M522.019 779.007c0 9.938-8.046 18.004-18.004 18.004-103.932 0-188.492-84.561-188.492-188.492 0-9.938 8.046-18.004 18.004-18.004 9.956 0 18.004 8.066 18.004 18.004 0 84.074 68.413 152.487 152.487 152.487 9.956 0 18.002 8.046 18.002 18.002zM239.874 608.518c0-61.786 19.966-120.206 57.753-168.942 0.179-0.235 0.379-0.467 0.576-0.702 78.8-109.387 59.213-161.417 59.213-161.505-4.213-9.001-0.323-19.714 8.678-23.944 2.467-1.152 5.059-1.71 7.614-1.692 6.768 0 13.251 3.834 16.31 10.37 3.258 6.912 29.003 71.347-63.551 199.132-0.414 0.558-0.828 1.099-1.296 1.601-32.243 42.128-49.275 92.463-49.275 145.7 0 132.288 107.641 239.909 239.909 239.909s239.913-107.621 239.913-239.909c0-53.379-17.138-103.914-49.886-146.509-92.607-127.876-65.819-193.048-62.471-200.069 4.23-8.804 14.618-12.405 23.512-8.425s12.926 14.565 9.163 23.565c-0.217 0.523-20.848 53.596 58.654 163.397 37.302 48.537 57.033 106.634 57.033 168.023 0 152.145-123.772 275.917-275.917 275.917s-275.933-123.792-275.933-275.917zM676.485 182.42v15.302c0 24.394-19.858 44.234-44.234 44.234h-242.609c-24.394 0-44.234-19.84-44.234-44.234v-15.302c0-24.376 19.84-44.234 44.234-44.234h242.629c24.376 0 44.214 19.84 44.214 44.234zM381.415 182.42v15.302c0 4.536 3.69 8.228 8.228 8.228h242.629c4.536 0 8.228-3.69 8.228-8.228v-15.302c0-4.536-3.69-8.228-8.228-8.228h-242.629c-4.538 0-8.228 3.69-8.228 8.228zM418.789 110.821c-9.956 0-18.004-8.066-18.004-18.004v-47.547c0-7.056 4.122-13.448 10.531-16.383l97.019-44.269c2.376-1.081 4.915-1.621 7.471-1.621 2.629 0 5.258 0.576 7.688 1.728l97.289 45.908c6.301 2.97 10.317 9.307 10.317 16.274v45.891c0 9.938-8.046 18.004-18.004 18.004s-18.004-8.066-18.004-18.004v-34.493l-79.412-37.483-78.889 36.006v35.971c0 9.978-8.046 18.024-18.002 18.024zM935.227 283.2c5.905 7.993 4.195 19.264-3.798 25.169l-122.133 90.051c-8.011 5.905-19.264 4.213-25.169-3.798-5.905-7.993-4.195-19.264 3.798-25.169l122.133-90.051c3.223-2.376 6.968-3.51 10.675-3.51 5.51-0.018 10.965 2.52 14.494 7.309zM219.619 788.424c3.223-2.376 6.968-3.51 10.675-3.51 5.526 0 10.963 2.538 14.511 7.327 5.905 7.993 4.195 19.264-3.798 25.169l-124.888 92.069c-7.993 5.922-19.264 4.195-25.169-3.798-5.905-8.011-4.213-19.282 3.798-25.187l124.87-92.069zM225.291 404.615l-130.522-96.244c-7.993-5.905-9.703-17.176-3.798-25.169 3.528-4.788 8.983-7.327 14.511-7.327 3.708 0 7.453 1.134 10.675 3.51l130.522 96.244c7.993 5.905 9.703 17.176 3.798 25.169-5.942 8.011-17.193 9.703-25.187 3.816zM793.254 823.349c-7.993-5.905-9.703-17.176-3.798-25.169 3.528-4.788 8.983-7.327 14.511-7.327 3.708 0 7.453 1.152 10.675 3.51l116.822 86.127c7.993 5.905 9.703 17.176 3.798 25.169s-17.158 9.721-25.169 3.798l-116.839-86.109zM1005.998 612.425h-137.705c-9.956 0-18.004-8.066-18.004-18.004s8.046-18.004 18.004-18.004h137.705c9.956 0 18.004 8.066 18.004 18.004s-8.049 18.004-18.004 18.004zM178.105 594.421c0 9.938-8.046 18.004-18.004 18.004h-142.097c-9.956 0-18.004-8.066-18.004-18.004s8.046-18.004 18.004-18.004h142.099c9.936 0.002 18.002 8.066 18.002 18.004z" />
<glyph unicode="&#xe91e;" glyph-name="e-mail-envelope" d="M0 787.388v-678.776h1024v678.776h-1024zM512.005 368.216l-420.003 368.824h839.996l-419.993-368.824zM344.695 448.119l-294.346-258.481v516.965l294.346-258.483zM382.846 414.611l129.147-113.414 129.147 113.414 291.122-255.65h-840.524l291.108 255.65zM679.293 448.107l294.356 258.496v-516.965l-294.356 258.469z" />
<glyph unicode="&#xe91f;" glyph-name="tool" d="M568.020-53.72h-107.639c-16.195 0-21.844-0.035-77.032 136.691l-42.62 17.324c-116.131-52.685-129.878-52.685-134.473-52.685h-8.887l-7.578 6.509-76.303 74.655c-11.604 11.584-15.625 15.605 44.083 150.543l-17.379 41.116c-140.193 50.238-140.193 56.067-140.193 72.622v105.531c0 16.534 0 21.754 139.728 75.784l17.379 41.206c-63.16 132.885-58.815 137.011-46.356 148.74l82.058 80.449 10.19 0.32c12.388 0 58.35-16.769 136.726-49.858l42.495 17.254c51.162 137.261 57.441 137.241 73.581 137.241h107.639c16.125 0 21.794-0.020 76.982-136.781l42.69-17.199c115.951 52.615 129.878 52.615 134.508 52.615h8.832l7.578-6.399 76.303-74.53c11.604-11.709 15.57-15.715-44.138-150.708l17.429-41.351c140.373-50.023 140.373-55.832 140.373-72.422v-105.406c0-16.145 0-21.829-139.908-75.888l-17.269-41.241c62.841-132.31 58.69-136.456 46.926-148.31l-82.682-80.949-10.245-0.285c-12.333 0-58.19 16.789-136.456 49.913l-42.745-17.269c-51.302-137.231-57.131-137.231-73.596-137.231zM471.571-10.151h84.9c9.741 19.861 30.801 72.512 47.66 117.864l3.397 9.026 77.302 31.216 8.312-3.522c46.072-19.646 100.525-41.421 121.745-48.11l59.659 58.35c-7.578 21.005-30.551 72.402-51.272 115.756l-4.181 8.812 31.985 76.353 8.707 3.362c46.536 17.913 100.455 40.027 120.601 50.113v81.973c-20.381 9.581-74.085 30.017-120.367 46.426l-9.061 3.237-32.195 76.428 3.841 8.617c19.806 44.693 41.836 97.413 48.894 118.653l-59.819 58.475c-19.307-6.739-73.371-29.907-118.973-50.717l-8.492-3.896-77.302 31.161-3.452 8.597c-18.273 45.607-40.976 98.487-51.217 118.064h-84.84c-9.796-19.806-30.786-72.477-47.605-117.814l-3.342-8.977-77.087-31.32-8.312 3.557c-46.176 19.612-100.74 41.351-122.030 48.035l-59.554-58.385c7.473-20.97 30.516-72.332 51.167-115.686l4.236-8.832-32.145-76.318-8.652-3.342c-46.461-17.893-100.29-39.992-120.441-50.038v-82.078c20.381-9.616 74.030-30.107 120.282-46.586l8.992-3.272 32.2-76.173-3.841-8.597c-19.806-44.658-41.816-97.308-48.894-118.508l59.944-58.655c19.252 6.794 73.246 29.962 118.903 50.792l8.547 3.916 77.142-31.355 3.452-8.597c18.328-45.622 40.961-98.412 51.207-118.004zM511.993 272.383c-98.702 0-179.076 78.786-179.076 175.629 0 96.769 80.359 175.505 179.076 175.505 98.647 0 178.826-78.751 178.826-175.505 0-96.844-80.179-175.629-178.826-175.629zM511.993 579.908c-74.71 0-135.437-59.174-135.437-131.901 0-72.776 60.713-132.006 135.437-132.006 74.585 0 135.263 59.229 135.263 132.006-0.020 72.726-60.678 131.901-135.263 131.901z" />
<glyph unicode="&#xe920;" glyph-name="angle-pointing-to-left" d="M397.071 448l403.245 403.238c6.835 6.839 10.257 14.709 10.257 23.6s-3.418 16.761-10.257 23.586l-51.309 51.309c-6.843 6.835-14.709 10.267-23.579 10.267-8.895 0-16.761-3.432-23.6-10.267l-478.15-478.129c-6.839-6.839-10.249-14.709-10.249-23.6 0-8.895 3.411-16.761 10.249-23.6l478.125-478.129c6.85-6.85 14.724-10.267 23.615-10.267 8.88 0 16.747 3.418 23.586 10.267l51.309 51.273c6.835 6.839 10.246 14.713 10.246 23.611 0 8.884-3.407 16.751-10.246 23.59l-403.241 403.252z" />
<glyph unicode="&#xe921;" glyph-name="open-laptop-computer" d="M221.872 243.201h580.266c23.466 0 43.547 8.35 60.257 25.073 16.717 16.717 25.073 36.796 25.073 60.258v375.464c0 23.468-8.356 43.549-25.073 60.264-16.709 16.713-36.789 25.065-60.257 25.065h-580.266c-23.466 0-43.558-8.352-60.27-25.065s-25.065-36.796-25.065-60.264v-375.466c0-23.462 8.352-43.547 25.065-60.258 16.711-16.709 36.804-25.071 60.27-25.071zM204.798 703.996c0 4.621 1.691 8.628 5.068 11.998 3.383 3.374 7.384 5.066 12.006 5.066h580.253c4.629 0 8.628-1.689 12.006-5.066 3.368-3.379 5.057-7.377 5.057-11.998v-375.466c0-4.616-1.689-8.625-5.057-11.993-3.377-3.377-7.377-5.070-12.006-5.070h-580.258c-4.623 0-8.625 1.687-12.006 5.070-3.372 3.381-5.062 7.377-5.062 11.993v375.466zM938.671 209.063h-938.671v-51.191c0-14.231 8.352-26.313 25.063-36.266 16.721-9.953 36.804-14.933 60.27-14.933h853.338c23.462 0 43.547 4.98 60.258 14.933s25.073 22.035 25.073 36.266v51.191h-85.331zM554.666 157.872h-85.333c-5.683 0-8.527 2.851-8.527 8.533 0 5.69 2.845 8.546 8.527 8.546h85.333c5.688 0 8.539-2.856 8.539-8.546 0-5.683-2.851-8.533-8.539-8.533z" />
<glyph unicode="&#xe922;" glyph-name="angle-arrow-pointing-to-right" d="M800.34 471.604l-478.15 478.129c-6.843 6.835-14.717 10.267-23.604 10.267-8.891 0-16.761-3.432-23.6-10.267l-51.294-51.305c-6.85-6.839-10.26-14.695-10.26-23.6s3.411-16.761 10.26-23.6l403.238-403.238-403.238-403.245c-6.85-6.839-10.26-14.709-10.26-23.59 0-8.902 3.411-16.772 10.26-23.611l51.298-51.287c6.839-6.846 14.709-10.257 23.6-10.257 8.887 0 16.758 3.418 23.6 10.257l478.125 478.132c6.835 6.835 10.257 14.709 10.257 23.6s-3.396 16.761-10.232 23.615z" />
<glyph unicode="&#xe923;" glyph-name="chart-of-columns" d="M240.178 89.437h-104.726v439.85h104.729v-439.85zM407.743 700.342h-104.729v-614.395h104.729v614.395zM735.536 700.342h-104.729v-614.395h104.729v614.395zM569.144 553.724h-104.729v-467.777h104.729v467.777zM55.854 24.445v902.977h-55.854v-958.847h1024v55.856l-968.146 0.014z" />
<glyph unicode="&#xe924;" glyph-name="quotation-mark" d="M440.893 881.871v-170.873c0-23.174-18.786-41.951-41.96-41.951-82.682 0-127.658-84.803-133.891-252.176h133.891c23.174 0 41.96-18.795 41.96-41.96v-360.79c0-23.162-18.786-41.942-41.96-41.942h-356.982c-23.183 0-41.951 18.795-41.951 41.942v360.79c0 80.236 8.079 153.865 24.004 218.867 16.333 66.651 41.406 124.926 74.498 173.214 34.051 49.625 76.645 88.566 126.607 115.695 50.3 27.293 108.793 41.136 173.839 41.136 23.16 0 41.945-18.777 41.945-41.951zM982.037 669.044c23.162 0 41.963 18.795 41.963 41.951v170.873c0 23.174-18.797 41.951-41.963 41.951-65.020 0-123.521-13.846-173.803-41.136-49.971-27.128-92.588-66.070-126.645-115.695-33.080-48.287-58.153-106.566-74.489-173.231-15.917-65.023-23.996-138.652-23.996-218.849v-360.79c0-23.162 18.792-41.942 41.96-41.942h356.971c23.162 0 41.945 18.795 41.945 41.942v360.793c0 23.162-18.78 41.96-41.945 41.96h-131.981c6.14 167.37 50.458 252.173 131.984 252.173z" />
<glyph unicode="&#xe925;" glyph-name="website-design-symbol" d="M644.342-10.025c-17.736 13.046-19.64 32.645-19.64 32.645l-6.656 42.547h-212.111l-6.676-42.516c0 0-1.853-19.62-19.599-32.666-17.736-13.046-31.734-24.248-17.736-26.153 13.486-1.823 140.698-0.164 150.077 0 9.4-0.164 136.581-1.823 150.057 0 13.988 1.884-0.020 13.066-17.715 26.143zM273.060 329.851c56.668 0.44 63.724 14.1 82.196 70.994 34.068 89.784 187.484-23.511 92.406-62.833-95.078-39.342-231.27-8.602-174.602-8.161zM854.118 921.539c-27.525 22.159-73.062 11.244-101.765-24.371l-290.714-413.041c-28.703-35.604-28.559-28.805-1.065-50.944 27.494-22.159 20.869-23.747 49.572 11.858l341.77 371.886c28.703 35.635 29.706 82.463 2.202 104.612zM779.356 872.1c0 0-4.26 4.946-18.422 16.271 21.238 34.683 62.976 28.324 62.976 28.324-39.567-23.368-44.554-44.595-44.554-44.595zM983.040 781.967h-127.836l-56.474-61.44h163.84v-491.52h-901.12v491.52h524.186l43.284 61.44h-587.96c-22.62 0-40.96-18.34-40.96-40.96v-593.92c0-22.62 18.34-40.96 40.96-40.96h942.080c22.62 0 40.96 18.34 40.96 40.96v593.92c0 22.62-18.34 40.96-40.96 40.96z" />
<glyph unicode="&#xe926;" glyph-name="verification-of-delivery-list-clipboard-symbol" d="M519.754 886.858h-22.528c-12.037 0-21.795 9.76-21.795 21.795v0.733c0 27.954-22.662 50.614-50.616 50.614h-1.17c-27.954 0-50.614-22.66-50.614-50.614v-0.733c0-12.037-9.76-21.797-21.795-21.797h-22.528c-23.995 0-43.446-19.451-43.446-43.446v-0.878c0-23.995 19.451-43.446 43.446-43.446h191.051c23.994 0 43.445 19.453 43.445 43.446v0.88c-0.002 23.994-19.453 43.446-43.45 43.446zM424.229 886.858c-12.119 0-21.942 9.825-21.942 21.942 0 12.119 9.825 21.944 21.942 21.944 12.119 0 21.942-9.825 21.942-21.944s-9.823-21.942-21.942-21.942zM521.92 38.4h-368.32c-32.316 0-58.514 26.197-58.514 58.514v702.173c0 32.316 26.197 58.514 43.885 58.514h118.553c-0.989-4.859-1.523-9.895-1.523-15.072 0-40.087 32.614-72.701 72.707-72.701h191.043c40.095 0 72.706 32.614 72.706 73.586 0 4.857-0.52 9.592-1.431 14.187h89.202c46.948 0 73.144-26.197 73.144-58.514v-439.597c-4.862 0.303-9.69 0.74-14.627 0.74-20.236 0-39.774-2.851-58.517-7.703v344.161h-512v-585.144h337.197c1.603-25.712 7.222-50.323 16.494-73.142zM738.744 316.342c-105.029 0-190.17-85.144-190.17-190.171s85.139-190.171 190.17-190.171 190.17 85.144 190.17 190.171-85.141 190.171-190.17 190.171zM863.008 165.244l-117.029-131.658c-5.764-6.487-13.794-9.813-21.879-9.813-6.422 0-12.879 2.1-18.265 6.413l-73.144 58.514c-12.614 10.086-14.664 28.501-4.563 41.116 10.084 12.628 28.506 14.672 41.121 4.57l51.448-41.157 98.578 110.9c10.722 12.072 29.222 13.171 41.301 2.428 12.082-10.742 13.166-29.228 2.431-41.311zM607.086 448h-234.056c-8.080 0-14.629 6.551-14.629 14.629v14.629c0 8.080 6.549 14.629 14.629 14.629h234.056c8.078 0 14.63-6.551 14.63-14.629v-14.629c-0.003-8.078-6.552-14.629-14.63-14.629zM607.086 579.658h-234.056c-8.080 0-14.629 6.551-14.629 14.629v14.629c0 8.080 6.549 14.629 14.629 14.629h234.056c8.078 0 14.63-6.551 14.63-14.629v-14.629c-0.003-8.080-6.552-14.629-14.63-14.629zM533.942 330.971h-160.912c-8.080 0-14.629 6.551-14.629 14.629v14.629c0 8.080 6.549 14.629 14.629 14.629h160.912c8.082 0 14.63-6.549 14.63-14.629v-14.629c-0.003-8.078-6.549-14.629-14.63-14.629zM504.686 199.314h-131.658c-8.080 0-14.629 6.551-14.629 14.629v14.629c0 8.080 6.549 14.629 14.629 14.629h131.658c8.080 0 14.629-6.549 14.629-14.629v-14.629c0-8.078-6.549-14.629-14.629-14.629zM330.392 633.757l-53.875-60.61c-2.654-2.987-6.35-4.519-10.073-4.519-2.957 0-5.928 0.967-8.408 2.953l-33.673 26.937c-5.808 4.643-6.75 13.12-2.102 18.927 4.641 5.814 13.125 6.755 18.931 2.105l23.684-18.946 45.382 51.054c4.936 5.557 13.453 6.064 19.013 1.118 5.565-4.946 6.064-13.456 1.121-19.019zM330.392 503.606l-53.875-60.608c-2.654-2.987-6.35-4.518-10.073-4.518-2.957 0-5.928 0.965-8.408 2.953l-33.673 26.937c-5.808 4.643-6.75 13.12-2.102 18.927 4.641 5.814 13.125 6.755 18.931 2.105l23.684-18.947 45.382 51.054c4.936 5.557 13.453 6.064 19.013 1.116 5.565-4.944 6.064-13.456 1.121-19.019zM330.392 379.138l-53.875-60.61c-2.654-2.985-6.35-4.518-10.073-4.518-2.957 0-5.928 0.965-8.408 2.953l-33.673 26.939c-5.808 4.641-6.75 13.12-2.102 18.927 4.641 5.814 13.125 6.755 18.931 2.105l23.684-18.946 45.382 51.054c4.936 5.557 13.453 6.064 19.013 1.118 5.565-4.949 6.064-13.459 1.121-19.023zM330.392 253.791l-53.875-60.61c-2.654-2.987-6.35-4.518-10.073-4.518-2.957 0-5.928 0.965-8.408 2.953l-33.673 26.939c-5.808 4.641-6.75 13.12-2.102 18.927 4.641 5.814 13.125 6.755 18.931 2.105l23.684-18.946 45.382 51.054c4.936 5.557 13.453 6.064 19.013 1.118 5.565-4.949 6.064-13.461 1.121-19.023z" />
<glyph unicode="&#xe927;" glyph-name="right-arrow-angle" d="M750.936 482.128v0l-477.872 477.872-34.128-34.128 477.871-477.872-477.871-477.872 34.128-34.128 512 512z" />
<glyph unicode="&#xe928;" glyph-name="speech-bubble-outline-of-rectangular-shape" d="M966.037 882.718h-908.074c-32.015 0-57.963-25.948-57.963-57.963v-560.304c0-32.013 25.948-57.961 57.963-57.961h59.566l104.642-193.21 104.642 193.21h639.227c32.015 0 57.963 25.948 57.963 57.961v560.304c-0.003 32.015-25.951 57.963-57.966 57.963zM985.357 303.096c0-32.017-25.948-57.965-57.963-57.965h-627.536l-76.375-132.268-76.355 132.268h-50.524c-32.015 0-57.963 25.948-57.963 57.965v483.018c0 32.015 25.948 57.963 57.963 57.963h830.792c32.015 0 57.963-25.948 57.963-57.963v-483.018z" />
<glyph unicode="&#xe929;" glyph-name="down-arrow" d="M1011.453 734.482c-16.73 16.816-43.875 16.816-60.605 0l-438.824-481.508-438.869 481.508c-16.73 16.816-43.876 16.816-60.607 0s-16.73-44.089 0-60.903l466.996-512.403c8.92-8.963 20.785-12.803 32.437-12.208 11.692-0.596 23.517 3.244 32.437 12.208l467.038 512.448c16.729 16.812 16.729 44.042-0.002 60.858z" />
<glyph unicode="&#xe92a;" glyph-name="up-arrow-angle" d="M1011.453 222.939l-466.996 511.252c-8.92 8.963-20.786 12.762-32.437 12.164-11.694 0.597-23.519-3.201-32.438-12.164l-467.034-511.252c-16.73-16.772-16.73-44.002 0-60.776s43.876-16.772 60.607 0l438.869 480.484 438.824-480.484c16.73-16.772 43.875-16.772 60.605 0 16.73 16.771 16.73 44.002 0 60.776z" />
<glyph unicode="&#xe92b;" glyph-name="right-arrow-angle-1" d="M798.813 480.478l-512.425 466.975c-16.815 16.73-44.086 16.73-60.901 0-16.815-16.729-16.815-43.872 0-60.602l481.528-438.851-481.485-438.85c-16.815-16.73-16.815-43.874 0-60.602s44.086-16.729 60.9 0l512.426 466.975c8.962 8.918 12.805 20.742 12.206 32.434 0.557 11.737-3.284 23.559-12.249 32.521z" />
<glyph unicode="&#xe92c;" glyph-name="double-right-arrows-angles" d="M486.914 448.002c0.939 12.070-2.73 24.399-11.987 33.612l-380.584 379.946c-16.806 16.763-44.021 16.763-60.827 0-16.808-16.764-16.808-43.938 0-60.744l353.413-352.814-353.413-352.816c-16.808-16.763-16.808-43.936 0-60.701 16.808-16.763 44.023-16.763 60.827 0l380.586 379.946c9.255 9.213 12.882 21.497 11.985 33.57zM991.035 481.614l-466.623 465.814c-16.808 16.763-44.023 16.763-60.829 0-16.808-16.764-16.808-43.98 0-60.701l439.451-438.725-439.452-438.684c-16.808-16.764-16.808-43.936 0-60.744 16.808-16.764 44.023-16.764 60.829 0l466.579 465.812c9.257 9.213 12.882 21.542 11.943 33.614 0.984 12.072-2.685 24.4-11.898 33.614z" />
<glyph unicode="&#xe92d;" glyph-name="circle" d="M694.945 630.945c-12.608 12.608-33.024 12.608-45.6 0l-137.505-137.504-135.585 135.583c-12.512 12.512-32.768 12.512-45.247 0-12.512-12.512-12.512-32.768 0-45.247l135.585-135.585-136.512-136.512c-12.608-12.608-12.608-33.022 0-45.6s33.024-12.577 45.6 0l136.513 136.512 135.583-135.583c12.512-12.512 32.768-12.512 45.248 0 12.512 12.512 12.512 32.768 0 45.248l-135.585 135.583 137.505 137.504c12.606 12.576 12.606 33.022-0.002 45.6zM512 960c-282.785 0-512-229.215-512-512s229.215-512 512-512c282.751 0 512 229.249 512 512s-229.215 512-512 512zM512 0c-247.425 0-448 200.575-448 448s200.575 448 448 448c247.425 0 448-200.575 448-448s-200.575-448-448-448z" />
<glyph unicode="&#xe92e;" glyph-name="telephone" d="M721.131-64c0 0 92.947 0 92.947 93.087v837.826c0 93.087-92.947 93.087-92.947 93.087h-418.263c0 0-92.947 0-92.947-93.087v-837.826c0-93.087 92.947-93.087 92.947-93.087h418.263zM512-25.241c-25.653 0-46.473 20.821-46.473 46.473 0 25.654 20.82 46.473 46.473 46.473s46.474-20.82 46.474-46.473c0-25.653-20.82-46.473-46.474-46.473zM395.816 903.256c0 5.763 4.602 10.271 10.271 10.271h211.782c5.669 0 10.316-4.602 10.316-10.271v-2.742c0-5.809-4.602-10.271-10.27-10.271h-211.828c-5.623 0-10.271 4.602-10.271 10.271v2.742zM256.396 843.816h511.21v-743.578h-511.21v743.578z" />
<glyph unicode="&#xe92f;" glyph-name="three" d="M1011.061 634.182c7.123 0 12.939 6.097 12.939 12.939v67.211c0 7.121-5.493 12.939-12.939 12.939h-998.122c-7.121 0-12.939-6.097-12.939-12.939v-67.211c0-7.121 5.493-12.939 12.939-12.939h998.122zM0 414.395c0-7.121 5.493-12.939 12.939-12.939h998.121c7.121 0 12.939 6.099 12.939 12.939v67.211c0 7.168-5.493 12.939-12.939 12.939h-998.121c-7.121 0-12.939-6.099-12.939-12.939v-67.211zM0 181.668c0-7.121 5.493-12.939 12.939-12.939h998.121c7.121 0 12.939 6.099 12.939 12.939v67.211c0 7.121-5.493 12.937-12.939 12.937h-998.121c-7.121 0-12.939-6.097-12.939-12.937v-67.211z" />
<glyph unicode="&#xe930;" glyph-name="symbol" d="M265.481 580.741h493.037v-37.926h-493.037v37.926zM265.481 694.519h493.037v-37.926h-493.037v37.926zM872.296 641.422v128.948c0 41.72-34.134 75.852-75.852 75.852h-155.495l-128.948 113.778-128.948-113.778h-155.497c-41.72 0-75.852-34.132-75.852-75.852v-128.948l-113.778-98.607v-530.963c0-41.718 34.132-75.852 75.852-75.852h796.444c41.718 0 75.852 34.134 75.852 75.852v530.963l-113.778 98.607zM872.296 592.118l56.89-49.303-56.89-49.303v98.605zM512.001 910.697l72.060-64.475h-147.912l75.852 64.475zM189.63 770.37c0 22.756 15.17 37.926 37.926 37.926h568.889c18.962 0 37.926-18.962 37.926-37.926v-307.199l-121.363-109.986h-402.015l-121.363 106.193v310.993zM587.853 239.407v0h-151.704l-83.437 75.852h314.784l-79.643-75.852zM151.704 592.118v-102.399l-56.89 53.096 56.89 49.303zM87.229-14.697c-7.585 7.585-11.377 15.17-11.377 26.549v493.037l303.407-265.481-292.031-254.105zM132.742-26.074l265.479 227.556h227.556l265.481-227.556h-758.517zM948.148 258.371v-246.518c0-11.377-3.792-18.962-11.377-26.549l-292.031 254.103 303.407 265.481v-246.518zM265.481 466.963h493.037v-37.926h-493.037v37.926z" />
<glyph unicode="&#xe931;" glyph-name="left-quote" d="M411.381 720.176c25.608 10.739 36.347 41.303 24.782 66.085l-40.477 85.085c-11.565 23.948-39.651 34.695-64.433 23.948-70.216-29.738-130.518-68.563-178.43-115.649-58.651-55.338-98.302-118.945-119.78-189.161-21.478-71.050-33.043-167.691-33.043-290.775v-253.602c0-27.26 22.304-49.564 49.564-49.564h324.644c27.26 0 49.564 22.304 49.564 49.564v324.644c0 27.268-22.304 49.564-49.564 49.564h-155.3c1.652 83.441 21.478 150.344 57.825 200.742 29.738 40.461 74.346 73.503 134.649 99.12zM994.584 720.176c25.608 10.739 36.339 41.303 24.782 66.085l-40.477 84.25c-11.565 23.956-39.651 34.695-64.433 23.956-69.39-29.738-128.875-68.563-177.604-114.823-58.659-56.173-99.128-119.78-120.614-189.995-21.478-69.381-32.208-166.039-32.208-289.949v-253.602c0-27.26 22.304-49.564 49.564-49.564h324.644c27.26 0 49.564 22.304 49.564 49.564v324.644c0 27.268-22.304 49.564-49.564 49.564h-156.127c1.652 83.441 21.486 150.344 57.825 200.742 29.738 40.469 74.346 73.512 134.649 99.128z" />
<glyph unicode="&#xe932;" glyph-name="laptop" d="M1022.738 210.693c-0.978 1.136-2.418 1.809-3.933 1.809h-1013.611c-1.514 0-2.944-0.662-3.933-1.809-0.988-1.136-1.43-2.66-1.209-4.164 0.147-0.946 15.436-94.803 134.097-94.803h755.7c118.651 0 133.94 93.857 134.097 94.803 0.21 1.504-0.231 3.028-1.209 4.164zM588.228 144.596h-152.467v35.057h152.467v-35.057zM110.481 248.988h803.028c11.609 0 21.030 9.421 21.030 21.030v493.215c0 11.609-9.421 21.030-21.030 21.030h-803.028c-11.609 0-21.030-9.421-21.030-21.030v-493.215c0-11.609 9.421-21.030 21.030-21.030zM163.056 710.659h697.878v-388.065h-697.878v388.065z" />
<glyph unicode="&#xe933;" glyph-name="line" d="M0 479.008h1024v-62.016h-1024v62.016z" />
<glyph unicode="&#xe934;" glyph-name="sign" d="M1024 479.97h-480.015v479.535h-63.938v-479.535h-480.047v-63.94h480.047v-479.535h63.938v479.535h480.015z" />
<glyph unicode="&#xe935;" glyph-name="delete" d="M1024 899.758l-59.364 59.233-452.636-451.773-452.638 451.773-59.362-59.233 452.638-451.776-452.638-451.741 59.362-59.231 452.638 451.741 452.636-451.741 59.364 59.231-452.67 451.741z" />
<glyph unicode="&#xe936;" glyph-name="new-email-outline" d="M1023.982 698.597c0 21.86-8.634 41.637-22.409 56.716-0.229 0.299-0.281 0.653-0.529 0.954-0.229 0.264-0.547 0.371-0.795 0.617-15.663 16.387-37.735 26.751-62.314 26.751h-851.872c-24.579 0-46.651-10.364-62.349-26.751-0.229-0.246-0.566-0.353-0.795-0.636-0.248-0.283-0.299-0.653-0.529-0.954-13.755-15.079-22.39-34.837-22.39-56.697v-501.192c0-22.39 8.988-42.642 23.361-57.847 0.283-0.316 0.371-0.706 0.689-1.007 0.105-0.105 0.229-0.122 0.336-0.229 15.663-15.964 37.469-25.958 61.678-25.958h851.872c24.209 0 46.034 10.011 61.678 25.973 0.105 0.090 0.229 0.124 0.335 0.212 0.301 0.283 0.388 0.671 0.671 0.972 14.391 15.202 23.379 35.473 23.379 57.882v501.194h-0.018zM688.823 474.487l295.094 244.681c2.895-6.286 4.608-13.225 4.608-20.57v-501.192c0-6.641-1.377-12.944-3.761-18.753l-295.941 295.834zM937.935 748.586c7.434 0 14.444-1.695 20.818-4.556l-446.754-370.404-446.754 370.404c6.375 2.859 13.385 4.556 20.818 4.556h851.872zM39.236 178.669c-2.384 5.791-3.761 12.112-3.761 18.753v501.175c0 7.345 1.713 14.286 4.608 20.57l295.094-244.681-295.941-295.817zM86.063 147.432c-8.192 0-15.822 2.12-22.671 5.543l299.048 298.926 138.171-114.564c3.284-2.737 7.345-4.114 11.389-4.114s8.105 1.377 11.389 4.114l138.171 114.564 299.048-298.926c-6.852-3.425-14.478-5.543-22.673-5.543h-851.871z" />
<glyph unicode="&#xe937;" glyph-name="check-symbol" d="M325.818 221.091l-244.364 244.364-81.455-81.455 325.818-325.818 698.182 698.182-81.455 81.455z" />
<glyph unicode="&#xe938;" glyph-name="round" d="M511.99 960c-282.324 0-511.99-229.683-511.99-512s229.665-512 511.99-512 512.010 229.683 512.010 512-229.686 512-512.010 512zM511.99 3.149c-245.289 0-444.841 199.562-444.841 444.851 0 245.292 199.549 444.849 444.841 444.849s444.854-199.56 444.854-444.849c0.003-245.289-199.565-444.851-444.854-444.851zM697.359 615.613l-264.015-264.003-106.724 106.701c-13.115 13.1-34.36 13.107-47.475-0.008-13.12-13.12-13.12-34.368 0-47.483l130.465-130.445c6.556-6.548 15.145-9.825 23.734-9.825s17.201 3.277 23.754 9.836c0.020 0.028 0.036 0.056 0.069 0.090l287.665 287.662c13.12 13.107 13.12 34.371 0 47.478-13.112 13.115-34.373 13.115-47.473-0.003z" />
<glyph unicode="&#xe939;" glyph-name="arrows" d="M979.671 492.329h-828.336l197.653 197.666c17.316 17.305 17.316 45.378 0 62.681-17.316 17.316-45.388 17.316-62.678 0l-273.323-273.328c-17.316-17.305-17.316-45.381 0-62.681l273.323-273.341c8.655-8.66 19.999-12.984 31.339-12.984s22.684 4.324 31.339 12.984c17.316 17.305 17.316 45.378 0 62.678l-197.653 197.676h828.336c24.478 0 44.329 19.847 44.329 44.326s-19.847 44.323-44.329 44.323z" />
<glyph unicode="&#xe93a;" glyph-name="arrows-1" d="M1010.055 481.668l-304.726 304.726c-18.592 18.592-48.745 18.592-67.337 0-18.596-18.596-18.596-48.741 0-67.337l223.444-223.444h-813.823c-26.294 0-47.613-21.319-47.613-47.613 0-26.29 21.319-47.613 47.613-47.613h813.823l-223.436-223.444c-18.596-18.596-18.596-48.741 0-67.337 9.294-9.29 21.483-13.945 33.668-13.945s24.37 4.655 33.668 13.945l304.718 304.726c18.596 18.596 18.596 48.741 0 67.337z" />
<glyph unicode="&#xe93b;" glyph-name="delete-cross" d="M9.054-54.949c6.033-6.031 13.94-9.049 21.847-9.049s15.814 3.018 21.847 9.049l459.254 459.256 459.256-459.259c6.031-6.031 13.943-9.049 21.849-9.049 7.904 0 15.811 3.018 21.847 9.049 12.064 12.064 12.064 31.627 0 43.696l-459.259 459.256 459.259 459.256c12.064 12.067 12.064 31.627 0 43.694-12.067 12.067-31.627 12.067-43.696 0l-459.256-459.256-459.256 459.251c-12.067 12.067-31.627 12.067-43.694 0-12.067-12.064-12.067-31.627 0-43.694l459.256-459.254-459.254-459.254c-12.067-12.067-12.067-31.63 0-43.694z" />
<glyph unicode="&#xe93c;" glyph-name="location" d="M512 960c-191.626 0-347.527-155.899-347.527-347.525 0-77.005 45.336-194.115 142.676-368.549 66.423-119.022 132.54-219.556 135.329-223.791l47.788-72.435c4.818-7.305 12.982-11.701 21.735-11.701s16.917 4.395 21.735 11.701l47.786 72.43c2.762 4.187 68.398 103.851 135.331 223.795 97.34 174.426 142.676 291.536 142.676 368.549 0 191.626-155.901 347.525-347.527 347.525zM671.378 269.304c-66.002-118.266-130.6-216.366-133.323-220.489l-26.055-39.493-26.047 39.483c-2.737 4.156-67.831 103.135-133.331 220.499-90.291 161.805-136.072 277.265-136.072 343.171 0 162.911 132.537 295.448 295.45 295.448s295.45-132.537 295.45-295.448c0-65.915-45.782-181.371-136.072-343.171zM512 807.33c-106.247 0-192.684-86.439-192.684-192.684s86.437-192.684 192.684-192.684 192.684 86.439 192.684 192.684-86.437 192.684-192.684 192.684zM512 474.038c-77.532 0-140.607 63.075-140.607 140.607s63.075 140.607 140.607 140.607c77.534 0 140.607-63.075 140.607-140.607s-63.073-140.607-140.607-140.607z" />
<glyph unicode="&#xe93d;" glyph-name="clipboard-with-a-list" d="M865.322 886.76h-161.088l10.868-50.288c1.337-6.243 1.271-12.511 0.571-18.678h115.16v-812.831h-637.735v812.831h115.193c-0.7 6.201-0.734 12.469 0.601 18.745l10.871 50.221h-161.115c-19.040 0-34.45-15.441-34.45-34.48v-881.799c0-19.009 15.41-34.48 34.45-34.48h706.674c19.040 0 34.48 15.477 34.48 34.48v881.797c0.002 19.040-15.439 34.482-34.48 34.482zM749.658 637.531h-235.523c-19.074 0-34.482-15.441-34.482-34.45 0-19.049 15.41-34.482 34.482-34.482h235.523c19.074 0 34.48 15.433 34.48 34.482 0.004 19.009-15.406 34.45-34.48 34.45zM749.658 426.054h-235.523c-19.074 0-34.482-15.439-34.482-34.48 0-19.019 15.41-34.486 34.482-34.486h235.523c19.074 0 34.48 15.475 34.48 34.486 0.004 19.040-15.406 34.48-34.48 34.48zM252.065 629.429c-14.543-12.271-16.416-34.022-4.143-48.591l50.294-59.603c6.572-7.799 16.209-12.239 26.346-12.239 0.839 0 1.67 0.034 2.536 0.099 11.003 0.799 20.976 6.869 26.782 16.274l90.477 146.481c10.006 16.209 5.007 37.423-11.2 47.421-16.209 10.072-37.423 5.007-47.431-11.202l-65.498-105.993-19.61 23.217c-12.277 14.569-33.984 16.439-48.555 4.134zM334.636 443.258c-28.576 0-51.728-23.145-51.728-51.69 0-28.553 23.15-51.697 51.728-51.697 28.553 0 51.697 23.143 51.697 51.697 0 28.549-23.143 51.69-51.697 51.69zM749.658 219.216h-235.523c-19.074 0-34.482-15.41-34.482-34.488 0-19.011 15.41-34.45 34.482-34.45h235.523c19.074 0 34.48 15.439 34.48 34.45 0.004 19.080-15.406 34.488-34.48 34.488zM334.636 236.42c-28.576 0-51.728-23.143-51.728-51.697 0-28.545 23.15-51.699 51.728-51.699 28.553 0 51.697 23.147 51.697 51.699 0 28.553-23.143 51.697-51.697 51.697zM365.719 800.582h292.49c7.17 0 13.942 3.207 18.44 8.804 4.506 5.543 6.243 12.871 4.699 19.882l-24.208 112.054c-2.366 10.904-12.001 18.678-23.145 18.678h-244.030c-11.134 0-20.771-7.776-23.143-18.678l-24.246-112.054c-1.465-7.008 0.264-14.339 4.737-19.882 4.501-5.6 11.273-8.804 18.406-8.804z" />
<glyph unicode="&#xe93e;" glyph-name="technology-1" d="M994.521 192.358l-148.002 148.065c-19.876 19.774-46.492 30.67-74.933 30.67-29.598 0-57.544-11.654-78.673-32.796l-57.611-57.599c-44.767 24.883-104.268 59.107-166.044 120.882-61.703 61.725-95.931 121.052-120.942 166.061l57.666 57.624c42.874 42.963 43.751 111.889 1.961 153.64l-147.972 147.977c-19.821 19.876-46.436 30.822-74.95 30.822-28.937 0-56.311-11.141-77.318-31.419-12.708-10.234-76.483-66.533-100.252-182.637-33.279-162.511 43.183-318.871 263.919-539.696 246.581-246.505 457.087-265.665 515.732-265.665 12.209 0 19.575 0.754 21.541 0.983 114.998 13.479 156.173 64.55 186.237 101.841 38.955 48.33 38.82 111.923-0.36 151.247zM945.411 80.994c-28.259-35.050-54.947-68.151-144.16-78.61-0.047-0.004-4.927-0.551-14.149-0.551-52.469 0-241.493 17.817-470.799 247.051-203.559 203.644-275.005 343.296-246.602 482.021 20.732 101.269 75.772 144.312 77.911 145.947l1.898 1.402 1.665 1.669c9.188 9.18 21.206 14.238 33.842 14.238 11.505 0 22.146-4.312 29.992-12.183l148.006-148.010c17.029-17.012 16.123-45.64-1.995-63.796l-66.287-66.283c-16.995-18.719-14.996-44.018-5.634-60.492 27.014-48.749 64.016-115.515 135.217-186.737 70.964-70.964 137.632-107.937 186.246-134.9 4.867-2.732 14.915-7.316 27.492-7.316 14.852 0 28.488 6.286 38.583 17.745l61.204 61.187c9.137 9.142 21.117 14.178 33.737 14.178 11.531 0 22.227-4.325 30.055-12.111l147.905-147.968c18.787-18.855 11.031-47.682-4.126-66.482zM620.369 802.022c54.591-6.282 118.87-39.349 163.756-84.24 45.305-45.305 78.453-110.237 84.439-165.421 1.766-16.279 15.534-28.344 31.546-28.344 1.144 0 2.304 0.064 3.465 0.186 17.444 1.894 30.051 17.567 28.158 35.012-7.57 69.756-46.915 147.731-102.675 203.495-55.239 55.243-132.417 94.491-201.424 102.434-17.423 2.021-33.186-10.501-35.194-27.929s10.493-33.186 27.929-35.194zM590.686 668.931c29.526-3.402 70.388-25.302 97.156-52.071 26.997-27.001 48.94-68.253 52.172-98.096 1.766-16.284 15.534-28.348 31.546-28.348 1.144 0 2.3 0.064 3.461 0.186 17.444 1.894 30.055 17.567 28.162 35.012-5.524 50.952-39.349 105.111-70.417 136.179-30.788 30.792-84.418 64.457-134.815 70.265-17.449 2.029-33.19-10.497-35.198-27.925-2.004-17.432 10.501-33.194 27.933-35.202z" />
<glyph unicode="&#xe93f;" glyph-name="fax-with-phone" d="M902.602 804.176h-18.485v109.534c0 25.525-20.764 46.29-46.29 46.29h-338.315c-25.521 0-46.29-20.764-46.29-46.29v-109.534h-10.364c-1.891 16.312-8.892 31.446-20.46 43.455-14.323 14.874-33.668 23.065-54.463 23.065h-254.963c-20.795 0-40.135-8.191-54.463-23.065-14.328-14.879-21.787-34.514-21.011-55.292l12.789-340.81c0.868-23.215 0.886-62.447 0.035-85.662l-12.864-351.541c-0.758-20.773 6.719-40.404 21.055-55.27s33.677-23.052 54.459-23.052h254.963c20.786 0 40.131 8.187 54.463 23.057 8.372 8.685 14.323 19.023 17.744 30.234h447.254c54.697 0 99.192 44.495 99.192 99.192v616.498c0.004 54.697-37.675 99.192-83.987 99.192zM519.351 893.872h298.638v-237.025h-298.638v237.025zM374.796 4.954c-1.243-1.287-3.439-2.826-6.855-2.826h-254.967c-3.417 0-5.612 1.539-6.855 2.826s-2.698 3.544-2.575 6.957l12.868 351.541c0.913 24.97 0.895 65.59-0.040 90.56l-12.789 340.81c-0.128 3.408 1.318 5.656 2.557 6.939 1.234 1.283 3.425 2.813 6.833 2.813h254.963c3.408 0 5.599-1.53 6.833-2.813 1.239-1.287 2.685-3.531 2.557-6.939l-12.785-340.815c-0.935-24.979-0.957-65.603-0.044-90.556l12.864-351.541c0.128-3.417-1.327-5.669-2.566-6.957zM920.466 88.482c0-18.234-14.83-33.064-33.064-33.064h-445.455l-11.361 310.449c-0.851 23.202-0.829 62.429 0.040 85.662l10.748 286.519h11.85v-101.039c0-25.525 20.769-46.29 46.29-46.29h338.315c25.525 0 46.29 20.764 46.29 46.29v101.039h18.485c7.111 0 17.863-13.186 17.863-33.064v-616.502zM541.116 495.121h-37.186c-18.26 0-33.064-14.804-33.064-33.064s14.804-33.064 33.064-33.064h37.186c18.26 0 33.064 14.804 33.064 33.064s-14.804 33.064-33.064 33.064zM685.059 495.121h-37.186c-18.26 0-33.064-14.804-33.064-33.064s14.804-33.064 33.064-33.064h37.186c18.26 0 33.064 14.804 33.064 33.064s-14.804 33.064-33.064 33.064zM828.998 495.121h-37.186c-18.26 0-33.064-14.804-33.064-33.064s14.804-33.064 33.064-33.064h37.186c18.26 0 33.064 14.804 33.064 33.064s-14.799 33.064-33.064 33.064zM541.116 368.569h-37.186c-18.26 0-33.064-14.804-33.064-33.064s14.804-33.064 33.064-33.064h37.186c18.26 0 33.064 14.804 33.064 33.064s-14.804 33.064-33.064 33.064zM685.059 368.569h-37.186c-18.26 0-33.064-14.804-33.064-33.064s14.804-33.064 33.064-33.064h37.186c18.26 0 33.064 14.804 33.064 33.064s-14.804 33.064-33.064 33.064zM828.998 368.569h-37.186c-18.26 0-33.064-14.804-33.064-33.064s14.804-33.064 33.064-33.064h37.186c18.26 0 33.064 14.804 33.064 33.064s-14.799 33.064-33.064 33.064zM541.116 242.022h-37.186c-18.26 0-33.064-14.804-33.064-33.064s14.804-33.064 33.064-33.064h37.186c18.26 0 33.064 14.804 33.064 33.064s-14.804 33.064-33.064 33.064zM685.059 242.022h-37.186c-18.26 0-33.064-14.804-33.064-33.064s14.804-33.064 33.064-33.064h37.186c18.26 0 33.064 14.804 33.064 33.064s-14.804 33.064-33.064 33.064zM828.998 242.022h-37.186c-18.26 0-33.064-14.804-33.064-33.064s14.804-33.064 33.064-33.064h37.186c18.26 0 33.064 14.804 33.064 33.064s-14.799 33.064-33.064 33.064zM746.558 859.68h-155.771c-12.172 0-22.043-9.871-22.043-22.043s9.871-22.043 22.043-22.043h155.771c12.172 0 22.043 9.871 22.043 22.043s-9.871 22.043-22.043 22.043zM682.775 764.557h-91.988c-12.172 0-22.043-9.871-22.043-22.043s9.871-22.043 22.043-22.043h91.988c12.172 0 22.043 9.871 22.043 22.043s-9.871 22.043-22.043 22.043z" />
<glyph unicode="&#xe940;" glyph-name="boat-anchor" d="M864.737 208.468l-33.449 111.566c-1.053 3.507-3.457 6.449-6.675 8.184-3.222 1.737-7.003 2.117-10.503 1.068l-111.57-33.453c-5.342-1.603-9.195-6.267-9.761-11.816-0.564-5.553 2.272-10.896 7.181-13.542l40.843-21.999c-39.775-73.358-112.005-122.953-194.313-133.981v456.223h83.437c10.225-13.013 26.097-21.381 43.932-21.381 30.854 0 55.867 25.015 55.867 55.871 0 30.854-25.015 55.867-55.867 55.867-17.834 0-33.706-8.365-43.932-21.381h-83.437v95.219c46.713 14.691 80.695 58.401 80.695 109.902 0 63.513-51.67 115.185-115.183 115.185s-115.183-51.672-115.183-115.185c0-51.503 33.982-95.211 80.695-109.902v-95.219h-83.437c-10.227 13.015-26.097 21.381-43.934 21.381-30.856 0-55.867-25.013-55.867-55.867 0-30.856 25.013-55.871 55.867-55.871 17.834 0 33.706 8.37 43.934 21.381h83.437v-456.223c-82.311 11.026-154.538 60.621-194.313 133.981l40.843 21.999c4.911 2.648 7.745 7.991 7.183 13.542-0.566 5.548-4.42 10.215-9.764 11.816l-111.568 33.453c-3.502 1.049-7.283 0.669-10.501-1.068-3.22-1.735-5.624-4.677-6.675-8.184l-33.453-111.566c-1.605-5.346 0.171-11.128 4.493-14.656 2.518-2.050 5.613-3.101 8.723-3.101 2.234 0 4.485 0.541 6.539 1.649l43.25 23.297c26.908-51.254 66.836-90.751 115.499-122.569 84.265-55.091 130.476-86.104 149.477-135.5 3.567-9.279 9.392-21.588 24.756-21.588 15.362 0 21.188 12.309 24.756 21.588 19.003 49.397 65.212 80.409 149.477 135.5 48.663 31.817 88.591 71.314 115.501 122.569l43.248-23.297c2.052-1.106 4.303-1.649 6.539-1.649 3.112 0 6.205 1.051 8.723 3.101 4.32 3.528 6.098 9.31 4.493 14.656zM512 798.607c-25.479 0-46.21 20.729-46.21 46.207 0 25.481 20.731 46.212 46.21 46.212s46.21-20.729 46.21-46.212c0-25.479-20.729-46.207-46.21-46.207z" />
<glyph unicode="&#xe941;" glyph-name="interface" d="M301.64 301.19c0 17.006-11.8 27.147-32.62 27.147-8.502 0-14.26-0.839-17.271-1.642v-54.562c3.566-0.803 7.95-1.070 13.992-1.070 22.192 0 35.9 11.212 35.9 30.127zM430.526 327.766c-9.324 0-15.349-0.805-18.913-1.64v-120.839c3.566-0.837 9.324-0.837 14.529-0.837 37.824-0.268 62.493 20.553 62.493 64.67 0.268 38.363-22.211 58.646-58.109 58.646zM669.99 960h-411.28c-60.084 0-108.986-48.936-108.986-108.986v-403.012h-10.645c-24.25 0-43.917-19.648-43.917-43.919v-266.341c0-24.269 19.665-43.915 43.917-43.915h10.645v-48.838c0-60.116 48.902-108.986 108.986-108.986h561.174c60.046 0 108.954 48.872 108.954 108.986v657.071l-258.848 257.941zM210.375 356.018c12.871 2.175 30.962 3.814 56.45 3.814 25.758 0 44.117-4.917 56.452-14.793 11.783-9.307 19.735-24.669 19.735-42.747 0-18.074-6.025-33.44-16.989-43.849-14.26-13.423-35.347-19.448-60.016-19.448-5.49 0-10.411 0.272-14.26 0.805v-66.044h-41.373v182.262zM819.884 2.747h-561.174c-23.265 0-42.21 18.945-42.21 42.242v48.838h523.129c24.255 0 43.919 19.646 43.919 43.915v266.341c0 24.272-19.665 43.919-43.919 43.919h-523.129v403.012c0 23.231 18.947 42.176 42.21 42.176l386.31 0.404v-142.794c0-41.708 33.842-75.582 75.582-75.582l139.882 0.401 1.574-630.628c0-23.299-18.911-42.244-42.174-42.244zM369.69 174.593v181.425c15.345 2.442 35.345 3.814 56.452 3.814 35.078 0 57.824-6.293 75.648-19.714 19.181-14.26 31.229-36.989 31.229-69.622 0-35.347-12.871-59.751-30.696-74.811-19.448-16.167-49.053-23.834-85.22-23.834-21.659 0-37.004 1.372-47.413 2.742zM668.788 282.007v-33.973h-66.328v-74.278h-41.925v184.704h112.905v-34.241h-70.98v-42.212h66.328z" />
<glyph unicode="&#xe942;" glyph-name="interface-1" d="M996.696 628.963l-303.733 303.733c-36.407 36.407-95.63 36.407-132.030 0l-533.632-533.625c-36.402-36.407-36.402-95.63 0-132.032l303.733-303.737c36.407-36.402 95.632-36.404 132.032 0l533.628 533.628c36.407 36.407 36.402 95.632 0.002 132.034zM387.019 0.159c-4.352 1.491-8.5 3.679-11.977 7.154l-303.733 303.731c-0.082 0.086-0.101 0.194-0.19 0.28l315.897 0.002v-311.167zM89.827 373.57l496.612 496.614 0.004-483.041c-0.004-7.262-6.321-13.583-13.585-13.583l-483.030 0.011zM449.251 37.506v273.818h123.61c20.261 0 39.304 7.888 53.615 22.199 14.313 14.313 22.197 33.351 22.199 53.617v123.608l273.806-0.011-473.23-473.232zM648.673 572.983v315.897c0.084-0.086 0.196-0.105 0.283-0.192l303.733-303.733c3.471-3.473 5.662-7.618 7.144-11.983l-311.159 0.011zM30.325 828.067h318.718c16.744 0 30.323 13.575 30.323 30.321s-13.577 30.323-30.323 30.323h-318.718c-16.748 0-30.323-13.575-30.323-30.323 0-16.746 13.575-30.321 30.323-30.321zM30.325 708.944h199.858c16.746 0 30.321 13.575 30.321 30.323 0 16.744-13.575 30.321-30.321 30.321h-199.858c-16.748 0-30.323-13.575-30.323-30.321 0-16.748 13.575-30.323 30.323-30.323zM30.325 593.428h129.038c16.744 0 30.323 13.575 30.323 30.323s-13.577 30.323-30.323 30.323h-129.038c-16.748 0-30.323-13.577-30.323-30.323s13.575-30.323 30.323-30.323zM159.363 35.862h-129.038c-16.748 0-30.323-13.577-30.323-30.323s13.575-30.323 30.323-30.323h129.038c16.744 0 30.323 13.575 30.323 30.323 0 16.746-13.577 30.323-30.323 30.323z" />
<glyph unicode="&#xe943;" glyph-name="three-stacks-of-coins" d="M1023.852 412.816c-3.186 55.7-103.663 80.699-203.326 80.699-33.824 0-67.729-2.89-97.905-8.869v323.743c0 0.918-0.057 1.821-0.151 2.711-3.189 55.703-103.66 80.699-203.323 80.699s-200.137-24.996-203.323-80.699c-0.094-0.89-0.151-1.793-0.151-2.711v-219.391c-33.528 8.114-72.915 12.017-112.199 12.017-99.663 0-200.137-24.996-203.32-80.696-0.097-0.887-0.154-1.793-0.154-2.711v-430.004c0-57.618 102.198-83.41 203.48-83.41 101.279 0 203.471 25.792 203.471 83.41v4.381c33.538-8.108 72.922-12.004 112.196-12.004 33.821 0 67.72 2.893 97.905 8.869v-1.245c0-57.618 102.195-83.41 203.474-83.41s203.474 25.792 203.474 83.41v322.5c0 0.918-0.053 1.821-0.148 2.711zM722.621 433.107c24.565 5.771 57.2 10.089 97.905 10.089 91.942 0 142.78-22.018 152.253-33.091-9.476-11.073-60.31-33.094-152.249-33.094-40.705 0-73.337 4.318-97.908 10.092-25.452 5.979-42.236 13.514-50.319 19.436-1.739 1.274-3.091 2.475-4.022 3.566 0.934 1.091 2.286 2.293 4.022 3.566 8.082 5.922 24.867 13.457 50.319 19.436zM519.144 841.483c91.939 0 142.774-22.018 152.249-33.091-9.476-11.073-60.31-33.091-152.246-33.091-91.939 0-142.777 22.018-152.253 33.091 9.476 11.073 60.31 33.091 152.249 33.091zM365.989 750.422c39.192-17.316 96.317-25.443 153.158-25.443s113.963 8.127 153.152 25.443v-48.3c-6.523-10.57-57.669-34.321-153.152-34.321-95.486 0-146.636 23.751-153.158 34.321v48.3zM365.989 642.921c39.192-17.316 96.317-25.443 153.158-25.443s113.963 8.127 153.152 25.443v-48.303c-6.523-10.57-57.669-34.314-153.152-34.314-95.486 0-146.636 23.744-153.158 34.314v48.303zM203.471 550.699c49.174 0 86.58-6.299 112.199-13.853 22.282-6.567 35.651-14.086 40.057-19.234-4.406-5.151-17.775-12.671-40.057-19.241-25.619-7.551-63.018-13.85-112.189-13.85-91.945 0-142.783 22.018-152.256 33.091 9.476 11.070 60.31 33.088 152.246 33.088zM50.319 459.641c39.192-17.316 96.317-25.443 153.161-25.443 39.265 0 78.661 3.881 112.189 11.992 15.008 3.626 28.848 8.098 40.963 13.451v-48.306c-3.164-5.126-16.851-13.347-40.963-20.461-25.619-7.554-63.002-13.86-112.189-13.86-95.49 0-146.639 23.751-153.161 34.321v48.306zM50.319 352.135c39.192-17.316 96.317-25.443 153.161-25.443 39.265 0 78.661 3.881 112.189 11.992 15.008 3.626 28.848 8.098 40.963 13.451v-48.297c-3.164-5.126-16.851-13.347-40.963-20.461-25.619-7.554-63.002-13.86-112.189-13.86-95.49 0-146.639 23.751-153.161 34.321v48.297zM50.319 244.641c39.192-17.316 96.317-25.443 153.161-25.443 39.265 0 78.661 3.881 112.189 11.992 15.008 3.626 28.848 8.098 40.963 13.451v-48.303c-3.161-5.129-16.847-13.347-40.963-20.461-25.619-7.554-63.002-13.86-112.189-13.86-95.493 0-146.642 23.747-153.161 34.321v48.303zM356.632 88.831c-6.551-10.576-57.7-34.314-153.152-34.314-95.461 0-146.611 23.738-153.161 34.314v48.306c39.192-17.316 96.317-25.443 153.161-25.443 45.589 0 91.332 5.243 127.886 16.244 9.023 2.717 17.505 5.771 25.266 9.199v-48.306zM617.052 140.399c-24.571-5.774-57.194-10.098-97.905-10.098-49.187 0-86.574 6.306-112.196 13.863v55.304c33.531-8.108 72.928-11.992 112.196-11.992 33.827 0 67.72 2.903 97.905 8.881v-55.958zM617.052 247.893c-24.571-5.771-57.194-10.095-97.905-10.095-49.19 0-86.577 6.306-112.196 13.86v55.316c33.531-8.108 72.928-11.992 112.196-11.992 33.827 0 67.72 2.903 97.905 8.881v-55.97zM617.052 410.105v-54.709c-24.571-5.774-57.194-10.095-97.905-10.095-49.19 0-86.577 6.306-112.196 13.86v55.307c33.531-8.108 72.928-11.992 112.196-11.992 33.852 0 67.773 2.909 97.974 8.897-0.019-0.421-0.069-0.837-0.069-1.267zM519.147 452.798c-49.19 0-86.577 6.306-112.196 13.86v50.951c0 0.918-0.057 1.821-0.151 2.711-0.035 0.591-0.142 1.157-0.198 1.742 33.61-8.167 73.139-12.080 112.541-12.080 56.842 0 113.963 8.127 153.152 25.439v-48.303c-6.519-10.57-57.662-34.321-153.149-34.321zM973.681 88.831c-6.551-10.576-57.7-34.314-153.155-34.314s-146.607 23.738-153.155 34.311v48.309c10.856-4.796 23.128-8.862 36.346-12.272 34.509-8.897 75.714-13.171 116.812-13.171 56.842 0 113.966 8.127 153.155 25.443v-48.306zM973.681 196.335c-6.519-10.573-57.669-34.321-153.155-34.321-40.714 0-73.337 4.321-97.908 10.095-25.455 5.979-42.243 13.514-50.319 19.436-2.412 1.771-4.070 3.397-4.928 4.79v48.303c15.869-7.010 34.707-12.492 55.247-16.561 30.188-5.979 64.081-8.881 97.908-8.881 56.842 0 113.966 8.127 153.155 25.443v-48.303zM973.681 303.838c-6.523-10.57-57.672-34.321-153.155-34.321-40.714 0-73.337 4.324-97.908 10.095-25.455 5.982-42.243 13.517-50.319 19.439-2.412 1.764-4.070 3.393-4.928 4.787v48.297c15.869-7.010 34.707-12.492 55.247-16.561 30.188-5.979 64.081-8.881 97.908-8.881 56.842 0 113.966 8.127 153.155 25.443v-48.297z" />
<glyph unicode="&#xe944;" glyph-name="photo" d="M1002.994 827.081h-981.988c-11.602 0-21.006-9.406-21.006-21.006v-716.15c0-11.599 9.404-21.006 21.006-21.006h981.988c11.599 0 21.006 9.406 21.006 21.006v716.15c0 11.599-9.404 21.006-21.006 21.006zM981.988 785.069v-494.134l-218.499 168.194c-7.066 5.443-16.796 5.825-24.272 0.96l-143.466-93.384-283.044 194.13c-6.705 4.598-15.465 4.915-22.489 0.807l-248.206-145.226v368.654h939.976zM42.012 110.931v256.812l257.923 150.909 283.63-194.531c7.010-4.802 16.223-4.915 23.34-0.281l142.754 92.92 232.329-178.84v-126.987h-939.976zM589.65 501.481c54.748 0 99.287 44.537 99.287 99.282 0 54.737-44.539 99.27-99.287 99.27-54.746 0-99.282-44.533-99.282-99.27 0-54.746 44.537-99.282 99.282-99.282zM589.65 658.019c31.58 0 57.275-25.686 57.275-57.258 0-31.578-25.692-57.27-57.275-57.27-31.578 0-57.27 25.69-57.27 57.27 0 31.574 25.692 57.258 57.27 57.258z" />
<glyph unicode="&#xe945;" glyph-name="social-media" d="M741.403 960h-458.823c-155.814 0-282.579-126.771-282.579-282.585v-458.823c0-155.82 126.765-282.585 282.579-282.585h458.823c155.826 0 282.591 126.771 282.591 282.585v458.823c0.006 155.814-126.765 282.585-282.591 282.585zM933.146 218.591c0-105.723-86.014-191.732-191.738-191.732h-458.829c-105.717-0.006-191.726 86.008-191.726 191.732v458.823c0 105.717 86.008 191.732 191.726 191.732h458.823c105.723 0 191.738-86.014 191.738-191.732v-458.823zM511.997 711.848c-145.493 0-263.857-118.364-263.857-263.857 0-145.487 118.364-263.845 263.857-263.845s263.857 118.358 263.857 263.845c0 145.493-118.364 263.857-263.857 263.857zM511.997 275.005c-95.39 0-173.004 77.601-173.004 172.992 0 95.396 77.607 173.004 173.004 173.004s173.004-77.607 173.004-173.004c0-95.39-77.613-172.992-173.004-172.992zM786.92 788.886c-17.504 0-34.7-7.087-47.062-19.503-12.423-12.356-19.564-29.558-19.564-47.123 0-17.511 7.147-34.706 19.564-47.123 12.356-12.356 29.558-19.503 47.062-19.503 17.565 0 34.706 7.147 47.123 19.503 12.417 12.417 19.503 29.618 19.503 47.123 0 17.565-7.087 34.767-19.503 47.123-12.356 12.417-29.558 19.503-47.123 19.503z" />
<glyph unicode="&#xe946;" glyph-name="layers" d="M512.045 341.632c-3.192 0-6.378 0.662-9.349 2.040l-489.363 221.572c-8.149 3.681-13.375 11.83-13.334 20.779s5.339 17.009 13.531 20.642l489.363 215.553c5.847 2.571 12.451 2.571 18.297 0l489.273-215.553c8.197-3.633 13.489-11.693 13.531-20.642s-5.184-17.098-13.334-20.773l-489.267-221.584c-2.971-1.372-6.163-2.034-9.349-2.034zM78.296 585.624l433.749-196.42 433.659 196.42-433.659 191.057-433.749-191.057zM512.045 208.205c-3.192 0-6.378 0.662-9.349 2.040l-489.363 221.62 18.691 41.284 480.014-217.372 479.907 217.372 18.739-41.284-489.273-221.626c-2.989-1.372-6.181-2.034-9.366-2.034zM512.045 71.855c-3.192 0-6.378 0.662-9.349 2.040l-489.363 221.62 18.691 41.284 480.014-217.372 479.907 217.372 18.739-41.284-489.273-221.626c-2.989-1.372-6.181-2.034-9.366-2.034z" />
<glyph unicode="&#xe947;" glyph-name="edit-document" d="M64 64v768c0 35.312 28.752 64 64 64h640c35.312 0 64-28.688 64-64v-376.248l64 64v312.248c0 70.688-57.312 128-128 128h-640c-70.688 0-128-57.312-128-128v-768c0-70.688 57.312-128 128-128h352v64h-352c-35.248 0-64 28.688-64 64zM704 768h-512v-64h512v64zM704 640h-512v-64h512v64zM704 512h-512v-64h512v64zM192 320h256v64h-256v-64zM1005.248 384l-45.248 45.248c-12.504 12.504-28.872 18.752-45.248 18.752s-32.752-6.248-45.248-18.752l-274.752-274.752c-12.504-12.496-50.752-60.84-50.752-77.216l-32-141.28 141.248 32c0 0 64.752 38.248 77.248 50.752l274.752 274.752c25 24.992 25 65.528 0 90.496zM707.936 41.44c-3.624-3.44-16.16-11.904-31.472-21.656l-82.904 82.904c8.504 11.656 17.968 23.376 23.816 29.184l206.872 206.872 90.504-90.504-206.816-206.8z" />
<glyph unicode="&#xe948;" glyph-name="people" d="M951.6 223.904c-30.224 30.216-80.8 56.592-160.528 96.472-40.192 20.096-107.088 53.528-123.304 68.84 67.912 83.472 107.328 177.752 107.328 260.28 0 56 0 125.688-31.344 187.84-28.256 55.976-91.4 122.664-231.736 122.664-140.368 0-203.512-66.688-231.736-122.656-31.384-62.16-31.384-131.84-31.384-187.84 0-82.56 39.384-176.816 107.336-260.28-16.256-15.344-83.144-48.784-123.336-68.84-79.704-39.872-130.28-66.248-160.528-96.472-66.952-67-72.016-179.408-72.36-201.28-0.344-22.816 8.472-44.872 24.536-61.184 16-16.248 37.944-25.44 60.76-25.44h853.352c22.88 0 44.768 9.184 60.8 25.44 16.032 16.312 24.88 38.376 24.536 61.216-0.344 21.832-5.448 134.24-72.392 201.24zM953.88 6.376c-4.064-4.096-9.472-6.376-15.224-6.376h-853.352c-5.656 0-11.184 2.312-15.16 6.376-3.968 4.032-6.216 9.592-6.16 15.28 0.184 10.72 3.128 106.44 53.64 156.968 23.32 23.312 72.136 48.592 143.904 84.504 76.608 38.28 119.088 61.096 138.656 79.592l43.192 40.84-37.504 46.064c-59.072 72.56-92.984 152.72-92.984 219.872 0 51.784 0 110.44 24.504 159 29.344 58.064 88.040 87.504 174.624 87.504 86.512 0 145.272-29.44 174.592-87.472 24.504-48.592 24.504-107.248 24.504-159.032 0-67.128-33.88-147.28-93.024-219.872l-37.504-46.096 43.2-40.816c19.56-18.472 62.008-41.28 138.648-79.592 71.768-35.872 120.584-61.16 143.904-84.504 41.104-41.096 53.072-118 53.632-156.968 0.104-5.68-2.12-11.24-6.088-15.272z" />
<glyph unicode="&#xe949;" glyph-name="quote" d="M237.628 485.74v-82.428h205.932v-443.55h-443.561v443.55h0.011v82.428c0 167.38 48.158 291.667 143.145 369.431 65.708 53.792 148.881 81.066 247.213 81.066v-237.607c-53.379 0-152.74 0-152.74-212.89zM970.814 698.63v237.607c-98.327 0-181.499-27.274-247.208-81.066-94.987-77.764-143.151-202.057-143.151-369.431v-525.977h443.544v443.55h-205.932v82.428c0.005 212.89 99.367 212.89 152.746 212.89z" />
<glyph unicode="&#xe94a;" glyph-name="support" d="M923.389 592.29l-17.22-0.013c-47.522 176.232-209.234 301.492-394.346 301.492-184.014 0-345.561-125.291-393.871-301.527l-17.364 0.013c-55.466 0-100.589-45.123-100.589-100.589v-112.975c0-55.457 45.123-100.576 100.589-100.576h12.516c16.101-126.676 124.568-224.93 255.559-224.93h24.018c12.743-29.919 42.436-50.95 76.949-50.95h84.728c46.098 0 83.604 37.501 83.604 83.595 0 46.103-37.506 83.613-83.604 83.613h-84.728c-34.505 0-64.189-21.026-76.936-50.932h-24.036c-106.033 0-192.293 86.252-192.293 192.267v245.137c33.787 158.084 174.355 272.522 335.457 272.522 162.169 0 302.899-114.394 335.81-272.4v-245.233c0-18.039 14.624-32.663 32.663-32.663h43.115c55.462 0 100.584 45.118 100.584 100.58v112.979c0.004 55.462-45.118 100.589-100.606 100.589zM469.632 104.118h84.728c10.078 0 18.278-8.205 18.278-18.287 0-10.078-8.201-18.269-18.278-18.269h-84.728c-10.073 0-18.269 8.196-18.269 18.269 0 10.082 8.192 18.287 18.269 18.287zM65.326 378.691v112.975c0 19.441 15.818 35.263 35.232 35.263l10.483-0.009v-183.474h-10.452c-19.445-0.004-35.263 15.809-35.263 35.245zM958.674 378.726c0-19.437-15.818-35.254-35.259-35.254h-10.452v183.483l10.452 0.009c19.441 0 35.259-15.818 35.259-35.263v-112.975z" />
<glyph unicode="&#xe94b;" glyph-name="paint-palette-and-brush" d="M267.219 295.465c-14.637 11.565-32.981 17.935-51.654 17.935-25.376 0-49.007-11.275-64.835-30.94-13.84-17.214-20.106-38.75-17.636-60.635 2.473-21.933 13.414-41.579 30.804-55.324 14.637-11.568 32.975-17.938 51.644-17.938 25.395 0 49.029 11.297 64.844 30.981 13.827 17.185 20.087 38.696 17.626 60.572-2.467 21.933-13.402 41.591-30.795 55.349zM250.922 203.231c-8.607-10.718-21.505-16.867-35.379-16.867-10.343 0-20.096 3.387-28.199 9.791-9.423 7.448-15.346 18.067-16.684 29.907-1.329 11.792 2.054 23.41 9.524 32.698 8.61 10.699 21.508 16.836 35.382 16.836 10.352 0 20.109-3.387 28.209-9.788 9.42-7.448 15.339-18.074 16.672-29.919 1.326-11.782-2.051-23.376-9.524-32.657zM599.612 489.068c12.469 0 24.526 2.731 35.864 8.134 20.043 9.59 35.098 26.366 42.385 47.24 7.249 20.742 5.945 43.063-3.664 62.831-13.745 28.335-43.1 46.645-74.784 46.645-12.494 0-24.576-2.741-35.911-8.15-20.036-9.558-35.098-26.321-42.398-47.202-7.262-20.758-5.961-43.081 3.664-62.86 13.789-28.331 43.167-46.638 74.844-46.638zM556.786 586.088c3.951 11.294 12.116 20.374 22.991 25.562 6.213 2.961 12.816 4.464 19.633 4.464 17.299 0 33.303-9.946 40.775-25.354 5.182-10.661 5.885-22.68 1.985-33.851-3.947-11.3-12.123-20.392-22.985-25.591-6.19-2.952-12.778-4.445-19.576-4.445-17.314 0-33.35 9.962-40.854 25.376-5.176 10.645-5.875 22.661-1.969 33.838zM393.908 622.654c6.080-1.374 12.302-2.070 18.493-2.070 38.914 0 72.159 26.318 80.855 64.038 4.886 21.388 1.128 43.406-10.573 62.006-11.798 18.745-30.237 31.775-51.906 36.683-6.105 1.386-12.353 2.092-18.571 2.092-38.888 0-72.1-26.347-80.766-64.060-4.927-21.372-1.194-43.393 10.51-62.006 11.808-18.77 30.266-31.8 51.959-36.683zM368.283 712.862c4.697 20.449 22.762 34.733 43.923 34.733 3.399 0 6.83-0.387 10.204-1.153 11.82-2.678 21.86-9.763 28.275-19.951 6.32-10.040 8.349-21.917 5.721-33.41-4.634-20.103-23.143-34.692-44.008-34.692-3.39 0-6.808 0.384-10.173 1.144-11.823 2.662-21.864 9.741-28.275 19.929-6.307 10.034-8.32 21.892-5.668 33.4zM243.701 575.496c17.371 13.764 28.294 33.426 30.763 55.362 2.46 21.87-3.787 43.381-17.62 60.598-15.853 19.655-39.503 30.927-64.879 30.927-18.653 0-36.979-6.351-51.619-17.897-17.374-13.723-28.303-33.353-30.782-55.273-2.476-21.898 3.787-43.447 17.645-60.692 15.84-19.677 39.493-30.965 64.898-30.965 18.669 0.003 36.995 6.373 51.594 17.941zM156.672 612.22c-7.485 9.313-10.872 20.944-9.536 32.751 1.336 11.823 7.252 22.428 16.64 29.847 8.1 6.389 17.85 9.766 28.193 9.766 13.887 0 26.813-6.143 35.429-16.826 7.451-9.281 10.828-20.884 9.502-32.669-1.333-11.858-7.255-22.5-16.672-29.96-8.062-6.386-17.787-9.763-28.117-9.763-13.903-0.003-26.819 6.146-35.439 16.855zM1016.77 760.467c-3.267 3.295-9.095 7.224-18.291 7.224-10.784 0-39.43 0-213.407-148.043-3.497-2.974-7.025-5.989-10.566-9.026-31.085 81.088-85.7 153.379-156.076 205.67-80.694 59.955-176.781 91.663-277.864 91.689-0.032 0-0.054 0-0.079 0-68.218 0-151.143-23.836-216.422-62.217-80.020-47.041-124.081-109.955-124.065-177.143 0.025-81.116 45.775-115.046 82.537-142.306 29.976-22.232 53.651-39.789 53.664-78.268 0.009-38.476-23.653-56.017-53.613-78.227-36.749-27.244-82.49-61.155-82.464-142.281 0.019-67.179 44.108-130.108 124.144-177.19 65.326-38.428 148.295-62.315 216.526-62.333 0.047 0 0.088 0 0.132 0 123.826 0 240.229 47.794 327.778 134.584 86.434 85.681 134.506 199.249 135.769 320.271 29.349 33.397 57.781 66.593 83.737 97.873 44.408 53.512 78.555 97.668 101.493 131.235 30.389 44.461 43.696 71.731 27.068 88.488zM642.092 149.448c-80.426-79.73-187.369-123.627-301.164-123.627-0.035 0-0.085 0-0.12 0-121.942 0.035-302.846 84.755-302.881 201.732-0.019 62.085 32.619 86.283 67.176 111.902 32.301 23.949 68.911 51.093 68.899 108.606-0.019 57.504-36.639 84.663-68.949 108.622-34.572 25.641-67.229 49.858-67.248 111.949-0.016 71.832 66.041 121.394 105.421 144.546 58.906 34.632 136.326 57.003 197.261 57.003 0.022 0 0.047 0 0.066 0 92.908-0.025 181.2-29.154 255.332-84.229 68.37-50.8 120.559-122.112 148.049-201.779-81.989-71.589-170.773-154.129-236.893-220.464-109.819-14.215-124.78-87.404-135.718-141.172-9.313-45.781-15.358-67.916-50.696-70.751-8.708-0.699-15.799-7.271-17.157-15.9-1.361-8.626 3.368-17.062 11.439-20.405 2.271-0.939 56.319-23.023 119.466-23.026 0.009 0 0.016 0 0.022 0 44.005 0 81.752 10.667 112.191 31.702 37.508 25.921 62.941 67.018 75.723 122.131 43.201 43.708 92.565 96.414 141.377 150.705-11.234-93.472-53.415-179.956-121.595-247.544zM584.333 249.866c-20.030-79.377-70.43-119.614-149.939-119.611 0 0-0.013 0-0.019 0-20.966 0-41.043 2.861-57.923 6.427 20.162 20.563 26.46 51.506 31.913 78.312 10.387 51.061 20.21 99.385 100.57 110.865l75.398-75.994zM845.361 548.396c-74.932-89.272-165.631-189.524-240.295-265.747l-62.56 63.055c67.695 67.387 154.539 147.737 235.563 218.057v0c9.445 8.197 18.83 16.291 28.079 24.179 94.029 80.193 143.308 115.093 168.445 130.281-15.012-25.288-49.59-74.941-129.232-169.824z" />
<glyph unicode="&#xe94c;" glyph-name="arrow" d="M121.285-64c-42.845 0-62.020 36.717-62.020 73.102v877.796c-0.003 36.385 19.172 73.102 62.014 73.102 13.87 0 28.251-4.246 42.754-12.621l760.199-438.885c25.743-14.868 40.503-36.913 40.503-60.491s-14.76-45.623-40.5-60.488l-760.206-438.901c-14.499-8.368-28.881-12.614-42.744-12.614zM121.279 914.344c-14.235 0-16.361-17.193-16.361-27.446v-877.796c0-10.25 2.126-27.446 16.364-27.446 3.949 0 10.615 1.128 19.919 6.499l760.203 438.898c11.068 6.389 17.675 14.222 17.675 20.95s-6.607 14.561-17.679 20.953l-760.199 438.885c-9.304 5.374-15.97 6.503-19.922 6.503z" />
<glyph unicode="&#xe94d;" glyph-name="shape" d="M0 512h448v448h-448v-448zM64 896h320v-320h-320v320zM576 960v-448h448v448h-448zM960 576h-320v320h320v-320zM0-64h448v448h-448v-448zM64 320h320v-320h-320v320zM576-64h448v448h-448v-448zM640 320h320v-320h-320v320z" />
<glyph unicode="&#xe94e;" glyph-name="cogwheel" d="M619.807-64v0l-215.647 0.033c-16.155 0-29.276 13.088-29.276 29.276v84.927c-16.155 5.572-31.946 12.099-47.277 19.55l-60.036-60.036c-5.506-5.506-12.957-8.605-20.704-8.605v0c-7.748 0-15.198 3.099-20.671 8.605l-152.479 152.479c-11.44 11.44-11.44 29.935 0 41.375l60.036 60.069c-7.484 15.297-14.012 31.089-19.583 47.277h-84.927c-7.748 0-15.198 3.099-20.671 8.572-5.506 5.473-8.572 12.957-8.572 20.671v215.68c0 16.122 13.088 29.243 29.276 29.243h84.927c5.572 16.155 12.099 31.946 19.583 47.277l-60.069 60.036c-5.473 5.473-8.572 12.891-8.572 20.671 0 7.748 3.099 15.198 8.572 20.704l152.512 152.479c5.473 5.506 12.924 8.572 20.671 8.572v0c7.748 0 15.198-3.066 20.704-8.572l60.036-60.036c15.297 7.484 31.089 14.012 47.277 19.55v84.927c0 16.155 13.088 29.276 29.276 29.276h215.614c16.155 0 29.243-13.121 29.243-29.276v-84.96c16.155-5.539 31.979-12.066 47.31-19.55l60.036 60.036c11.44 11.44 29.935 11.44 41.375-0.033l152.512-152.479c5.473-5.473 8.572-12.924 8.572-20.671s-3.099-15.198-8.572-20.704l-60.069-60.036c7.484-15.33 14.012-31.089 19.583-47.277h84.927c16.155 0 29.276-13.088 29.276-29.276v-215.647c0-7.748-3.099-15.198-8.572-20.671-5.506-5.506-12.957-8.572-20.704-8.572v0h-84.927c-5.572-16.155-12.099-31.979-19.583-47.277l60.069-60.069c11.44-11.407 11.44-29.935 0-41.375l-152.512-152.479c-5.473-5.506-12.924-8.572-20.671-8.572v0c-7.748 0-15.198 3.099-20.704 8.572l-60.036 60.036c-15.33-7.484-31.122-14.012-47.277-19.55v-84.96c0-7.748-3.099-15.198-8.572-20.671-5.473-5.44-12.891-8.539-20.704-8.539zM433.403-5.448h157.161v77.146c0 13.056 8.671 24.561 21.232 28.155 26.408 7.517 51.925 18.1 75.86 31.386 11.44 6.33 25.682 4.352 34.914-4.846l54.53-54.53 111.104 111.104-54.53 54.53c-9.198 9.231-11.242 23.474-4.879 34.914 13.286 23.902 23.869 49.42 31.419 75.86 3.561 12.561 15.067 21.232 28.122 21.232v0h77.179v157.161h-77.179c-13.056 0-24.529 8.671-28.122 21.232-7.55 26.474-18.133 51.958-31.419 75.86-6.33 11.44-4.319 25.682 4.879 34.914l54.53 54.53-111.104 111.104-54.53-54.53c-9.231-9.231-23.474-11.209-34.914-4.879-23.935 13.253-49.453 23.836-75.893 31.419-12.561 3.561-21.232 15.034-21.232 28.122v77.146h-157.161v-77.146c0-13.088-8.671-24.529-21.199-28.122-26.507-7.583-52.024-18.166-75.893-31.419-11.341-6.429-25.616-4.484-34.848 4.78l-54.53 54.563-111.104-111.137 54.53-54.53c9.231-9.198 11.242-23.474 4.879-34.914-13.286-23.902-23.869-49.387-31.419-75.86-3.561-12.561-15.067-21.232-28.122-21.232h-77.146l-0.033-157.161h77.179c13.056 0 24.529-8.671 28.122-21.232 7.55-26.474 18.133-51.991 31.419-75.893 6.33-11.407 4.352-25.616-4.879-34.881l-54.53-54.464 111.104-111.137 54.563 54.563c9.198 9.198 23.441 11.209 34.914 4.846 23.869-13.253 49.387-23.836 75.86-31.386 12.561-3.594 21.199-15.067 21.199-28.155v-77.113zM512 225.694c-122.61 0-222.339 99.73-222.339 222.339s99.73 222.339 222.339 222.339c122.61 0 222.339-99.73 222.339-222.339s-99.73-222.339-222.339-222.339zM512 611.82c-90.334 0-163.82-73.487-163.82-163.82 0-90.367 73.487-163.853 163.82-163.853s163.853 73.487 163.853 163.853c0 90.334-73.52 163.82-163.853 163.82z" />
<glyph unicode="&#xe94f;" glyph-name="heart-1" d="M268.769 920.045c71.477 0 129.812-24.078 174.684-65.641 28.811-26.629 51.787-60.173 68.559-99.186 16.772 39.013 39.748 72.58 68.192 99.186 44.848 41.563 103.574 65.641 175.051 65.641 74.395 0 141.484-30.259 189.985-78.76 48.869-48.869 78.76-115.958 78.76-190.008 0-127.285-139.301-276.42-238.142-381.832-17.875-18.955-34.28-36.462-49.237-53.234l-205.31-231.571c-9.489-10.569-25.526-11.672-36.095-2.183-1.103 0.735-1.815 1.447-2.55 2.183l-205.31 231.571c-13.487 14.957-30.994 33.544-49.949 53.97-98.841 105.389-237.407 253.444-237.407 381.096 0 74.027 30.259 141.139 78.76 190.008 48.869 48.479 115.981 78.76 190.008 78.76v0zM408.805 816.839c-35.382 32.832-82.046 51.787-140.036 51.787-59.806 0-114.143-24.423-153.523-63.826s-63.826-93.718-63.826-153.523c0-107.572 130.547-246.896 223.553-346.082 18.243-19.322 35.382-37.565 50.684-55.073l186.355-210.066 186.355 210.066c13.854 15.325 31.362 34.28 50.317 54.337 92.638 99.186 223.92 239.222 223.92 346.817 0 59.806-24.423 114.143-63.459 153.523-39.38 39.38-93.718 63.826-153.891 63.826-57.99 0-104.654-18.955-140.036-51.787-38.645-35.727-64.906-88.617-77.681-152.076-1.815-10.201-9.489-18.61-20.425-20.793-13.854-2.918-27.341 5.836-30.259 20.058-12.774 63.459-39.036 116.693-78.048 152.811v0z" />
<glyph unicode="&#xe950;" glyph-name="arrows-2" d="M861.287 625.791c14.443-14.443 14.443-37.181 0-51.625-13.955-13.955-37.181-13.955-51.104 0l-261.766 261.766v-863.824c0-20.136-16.005-36.14-36.14-36.14s-36.661 16.005-36.661 36.14v863.857l-261.245-261.766c-14.443-13.955-37.702-13.955-51.625 0-14.443 14.443-14.443 37.181 0 51.625l323.735 323.735c13.955 13.955 37.181 13.955 51.104 0l323.702-323.767z" />
<glyph unicode="&#xe951;" glyph-name="play-button" d="M786.297 425.161l-505.39-480.357c-12.488-12.067-32.599-11.617-44.188 0.9-5.794 6.216-8.916 13.81-8.916 21.827v0 960.77c0 17.411 14.289 31.699 31.699 31.699 8.916 0 17.411-4.022 23.205-10.266l503.59-479.035c12.488-12.067 13.389-31.699 1.35-44.638-0.45-0.478-0.9-0.478-1.35-0.9v0zM490.314 230.492l229.012 217.424-428.575 407.17v-814.34l199.563 189.746z" />
<glyph unicode="&#xe952;" glyph-name="home" d="M529.020 927.823l487.152-453.357c9.846-9.513 10.556-24.992 1.397-35.193-4.923-5.278-11.62-7.739-18.295-7.739v-0.355h-123.185v-444.908c0-13.727-11.265-24.992-24.992-24.992h-193.947c-13.727 0-24.637 11.265-24.637 24.992v342.124h-240.76v-342.124c0-13.727-11.265-24.992-24.992-24.992h-193.947c-13.727 0-24.637 11.265-24.637 24.992v444.908h-123.54c-13.727 0-24.637 11.243-24.637 24.97 0 7.739 3.526 14.791 9.158 19.359l486.066 452.669c9.513 8.782 24.282 8.782 33.796-0.355v0zM738.8 664.888l-226.678 211.178-424.129-394.946h84.821c13.727 0 24.992-11.265 24.992-24.992v-444.908h144.318v341.814c0 13.727 10.91 24.992 24.637 24.992h290.389c13.727 0 24.992-11.265 24.992-24.992v-341.769h144.318v444.886c0 13.727 10.91 24.992 24.637 24.992h85.176l-197.473 183.747z" />
<glyph unicode="&#xe953;" glyph-name="cross" d="M36.441 411.559c-20.158 0-36.181 16.543-36.181 36.702s16.022 36.181 36.181 36.181h438.825v438.857c0.033 20.158 16.576 36.702 36.734 36.702s36.181-16.543 36.181-36.702v-438.857h438.825c20.158 0 36.702-16.022 36.702-36.181s-16.543-36.702-36.702-36.702h-438.825v-438.857c0-20.158-16.022-36.702-36.181-36.702s-36.702 16.543-36.702 36.702v438.857h-438.857z" />
<glyph unicode="&#xe954;" glyph-name="line-1" d="M36.2 411.555c-20.169 0-36.2 16.52-36.2 36.689s16.031 36.2 36.2 36.2h951.078c20.169 0 36.722-16.031 36.722-36.2s-16.552-36.722-36.722-36.722h-951.078z" />
<glyph unicode="&#xe955;" glyph-name="right-arrow" d="M689.55 797.181c-13.95 14.438-37.168 14.438-51.606 0-13.95-13.95-13.95-37.168 0-51.086l261.674-261.674h-863.49c-20.129-0.033-36.128-16.032-36.128-36.16s15.999-36.648 36.128-36.648h863.49l-261.674-261.187c-13.95-14.438-13.95-37.689 0-51.606 14.438-14.438 37.689-14.438 51.606 0l323.622 323.622c14.438 13.95 14.438 37.168 0 51.086l-323.622 323.654z" />
<glyph unicode="&#xe956;" glyph-name="arrows-3" d="M334.018 797.137c14.436 14.436 37.164 14.436 51.6 0 13.949-13.949 13.949-37.164 0-51.080l-261.641-261.641h863.38c20.126 0 36.643-15.997 36.643-36.123s-16.517-36.643-36.643-36.643h-863.38l261.641-261.153c13.949-14.436 13.949-37.684 0-51.6-14.436-14.436-37.164-14.436-51.6 0l-323.581 323.581c-13.949 13.949-13.949 37.164 0 51.080l323.581 323.581z" />
<glyph unicode="&#xe957;" glyph-name="home-1" d="M924.778 452.13c-13.691 0-24.795-11.104-24.795-24.795v-441.749h-266.070v277.302c0 13.691-11.104 24.795-24.795 24.795h-194.23c-13.691 0-24.795-11.104-24.795-24.795v-219.88c0-13.691 11.104-24.795 24.795-24.795s24.795 11.104 24.795 24.795v195.085h144.639v-252.507h-460.304v606.91l387.98 310.929 397.27-318.372c10.687-8.567 26.291-6.839 34.854 3.843 8.563 10.687 6.843 26.287-3.843 34.854l-412.775 330.802c-9.059 7.265-21.952 7.265-31.011 0l-412.775-330.802c-5.872-4.707-9.29-11.819-9.29-19.349v-643.607c0-13.691 11.1-24.795 24.795-24.795h825.555c13.695 0 24.795 11.104 24.795 24.795v466.54c0 13.695-11.1 24.795-24.795 24.795z" />
<glyph unicode="&#xe958;" glyph-name="time" d="M548.573 777.142h-73.142v-365.715l220.598-59.101 36.573 63.343-184.029 49.298v312.175zM512 960c-282.77 0-512-229.23-512-512s229.23-512 512-512 512 229.23 512 512-229.23 512-512 512zM512 9.142c-242.394 0-438.858 196.46-438.858 438.858s196.464 438.858 438.858 438.858 438.858-196.46 438.858-438.858-196.464-438.858-438.858-438.858z" />
<glyph unicode="&#xe959;" glyph-name="bullhorn" d="M955.734 584.534c-2.252 0-4.368-0.888-6.554-1.298-17.134 185.823-61.712 342.632-61.712 342.632s-132.983-104.722-273.068-170.667c-149.71-70.452-307.2-102.401-307.2-102.401h-238.933c-37.684 0-68.266-91.683-68.266-204.802s30.582-204.799 68.266-204.799h34.135v-204.799c0-37.684 30.582-68.266 68.266-68.266s68.266 30.582 68.266 68.266v204.799h68.266c0 0 157.288-31.813 307.2-102.401 139.811-65.81 273.068-170.667 273.068-170.667s44.714 155.99 61.781 342.632c2.186-0.409 4.233-1.298 6.485-1.298 37.684 0 68.266 61.098 68.266 136.533s-30.582 136.536-68.266 136.536zM102.401 584.534h68.266v-273.068h-68.266v273.068zM307.2 311.466h-68.266v273.068h68.266v-273.068zM853.333 72.533c0 0-119.056 85.129-238.933 136.533-119.056 50.994-238.933 68.266-238.933 68.266v341.334c0 0 118.375 16.589 238.933 68.266 118.375 50.723 238.933 136.533 238.933 136.533 0.205 0 35.158-205.142 34.065-374.852-1.159-171.622-34.065-376.080-34.065-376.080z" />
<glyph unicode="&#xe95a;" glyph-name="technology-2" d="M1024 176.94v722.825h-1024v-722.825h451.766v-120.47h-120.47v-60.235h361.413v60.235h-120.47v120.47h451.761zM60.235 297.41v542.12h903.53v-542.117h-903.53z" />
<glyph unicode="&#xe95b;" glyph-name="food" d="M800 512h-64v160.001c0 17.663-14.335 32.001-32.001 32.001h-576c-17.663 0-32.001-14.335-32.001-32.001v-576c0-88.383 71.615-160.001 160.001-160.001h320.001c77.375 0 141.951 54.976 156.8 127.999h3.201v64h64c88.383 0 127.999 71.615 127.999 160.001v64c0.003 88.386-39.613 160.001-127.999 160.001zM672.001 96.001c0-52.992-43.009-96.001-96.001-96.001h-319.998c-52.992 0-96.001 43.009-96.001 96.001v543.998h512v-543.998zM863.999 287.999c0-52.992-11.008-96.001-64-96.001h-64v256.001h64c52.992 0 64-43.009 64-96.001v-64zM639.999 960h-64v-191.999h64v191.999zM448 960h-64v-191.999h64v191.999zM256.001 960h-64.002v-191.999h64v191.999z" />
<glyph unicode="&#xe95c;" glyph-name="nature" d="M827.9 559.653c-5.656 10.094-16.328 16.348-27.906 16.348h-221.216l29.11 349.335c1.218 14.624-7.672 28.2-21.562 32.934-13.828 4.766-29.218-0.564-37.188-12.892l-351.995-543.993c-6.376-9.844-6.86-22.388-1.25-32.684s16.39-16.7 28.108-16.7h221.436l-29.344-381.545c-1.14-14.75 7.984-28.36 22.062-32.908 3.25-1.046 6.562-1.548 9.844-1.548 10.906 0 21.374 5.608 27.312 15.312l351.995 575.995c6.032 9.874 6.266 22.252 0.594 32.346zM490.109 98.284l21.796 283.259c0.688 8.89-2.374 17.658-8.422 24.206-6.062 6.53-14.578 10.252-23.484 10.252h-197.17l250.67 387.413-21.39-256.763c-0.734-8.922 2.282-17.73 8.344-24.324 6.062-6.58 14.592-10.326 23.546-10.326h198.936l-252.826-413.717z" />
<glyph unicode="&#xe95d;" glyph-name="email" d="M1016.409 529.451l0.002 0.002-130.757 86.686v289.747c0 9.366-7.593 16.96-16.96 16.96h-713.413c-9.366 0-16.96-7.593-16.96-16.96v-289.768l-130.732-86.671c-4.572-3.037-7.591-8.229-7.591-14.131v-525.206c0-9.366 7.593-16.96 16.96-16.96h990.081c9.366 0 16.96 7.593 16.96 16.96v525.206c0 5.902-3.019 11.094-7.591 14.133zM138.323 470.14l-53.197 28.219h53.197v-28.219zM33.919 487.125l390.015-206.885-390.015-258.526v465.411zM511.993 297.921l438.773-290.849h-877.543l438.771 290.849zM600.059 280.238l390.020 206.887v-465.42l-390.020 258.533zM885.655 498.359h53.222l-53.222-28.23v28.23zM950.766 532.278h-65.111v43.168l65.111-43.168zM851.735 888.928v-436.792l-283.852-150.57-46.521 30.837c-5.678 3.765-13.061 3.765-18.739 0l-46.515-30.833-283.866 150.577v436.781h679.493zM138.323 532.278h-65.084l65.084 43.145v-43.145zM511.989 476.829h135.121c9.366 0 16.96 7.593 16.96 16.96s-7.593 16.96-16.96 16.96h-135.121c-65.154 0-118.161 53.007-118.161 118.161v5.004c0 65.154 53.007 118.161 118.161 118.161s118.161-53.007 118.161-118.161v-12.512c0-14.104-11.474-25.58-25.58-25.58s-25.58 11.474-25.58 25.58v23.771c0 40.396-32.863 73.261-73.259 73.261s-73.259-32.863-73.259-73.261c0-40.396 32.863-73.259 73.259-73.259 18.472 0 35.357 6.886 48.256 18.208 10.501-16.921 29.243-28.216 50.583-28.216 32.807 0 59.499 26.69 59.499 59.499v12.512c0 83.857-68.223 152.080-152.080 152.080s-152.080-68.223-152.080-152.080v-5.004c0-83.86 68.223-152.083 152.080-152.083zM505.732 605.833c-21.693 0-39.34 17.647-39.34 39.34s17.649 39.342 39.34 39.342 39.34-17.649 39.34-39.342-17.647-39.34-39.34-39.34z" />
<glyph unicode="&#xe95e;" glyph-name="quality" d="M935.96 48.47l-135.567 327.283c-3.453 8.336-13.011 12.299-21.349 8.843s-12.299-13.014-8.843-21.349l122.555-295.873-111.788 32.391c-7.338 2.129-15.175-1.118-18.859-7.813l-56.144-101.949-131.501 317.475c151.776 29.269 266.778 163.084 266.778 323.275 0.002 181.546-147.696 329.247-329.242 329.247s-329.247-147.7-329.247-329.247c0-73.534 24.236-141.51 65.135-196.375l-159.849-385.909c-2.403-5.804-1.268-12.471 2.922-17.151 4.188-4.68 10.691-6.545 16.724-4.798l131.885 38.217 66.233-120.281c2.885-5.235 8.382-8.458 14.31-8.458 0.301 0 0.604 0.009 0.906 0.024 6.273 0.349 11.789 4.259 14.194 10.064l126.662 305.79c3.453 8.338-0.505 17.896-8.843 21.349s-17.896-0.505-21.349-8.843l-113.653-274.38-56.139 101.949c-3.686 6.695-11.528 9.942-18.861 7.813l-111.786-32.391 140.303 338.724c60.128-64.316 145.669-104.59 240.453-104.59 9.785 0 19.463 0.455 29.031 1.294l147.757-356.716c2.403-5.804 7.922-9.715 14.192-10.061 0.305-0.017 0.606-0.026 0.909-0.026 5.928 0 11.425 3.222 14.308 8.458l66.235 120.281 131.885-38.217c6.037-1.75 12.534 0.118 16.724 4.798s5.323 11.347 2.919 17.151zM215.434 630.753c0 163.526 133.039 296.566 296.566 296.566s296.563-133.039 296.563-296.566-133.037-296.563-296.563-296.563c-163.526 0-296.566 133.037-296.566 296.563zM700.806 692.102c-1.88 5.791-6.83 10.057-12.837 11.066l-109.954 18.452-51.525 98.868c-2.815 5.401-8.399 8.789-14.491 8.789-6.090 0-11.676-3.388-14.491-8.789l-51.527-98.868-109.951-18.452c-6.007-1.007-10.955-5.273-12.837-11.066s-0.388-12.151 3.88-16.497l78.107-79.556-16.428-110.274c-0.898-6.024 1.63-12.046 6.558-15.628 4.924-3.577 11.436-4.12 16.887-1.407l99.801 49.701 99.799-49.701c2.307-1.148 4.8-1.715 7.283-1.715 3.392 0 6.763 1.055 9.606 3.12 4.928 3.582 7.456 9.604 6.558 15.628l-16.425 110.274 78.107 79.558c4.266 4.347 5.761 10.704 3.878 16.497zM589.798 613.136c-3.591-3.658-5.257-8.787-4.501-13.855l13.007-87.31-79.018 39.35c-2.296 1.142-4.789 1.715-7.286 1.715-2.495 0-4.991-0.571-7.283-1.715l-79.018-39.35 13.007 87.31c0.756 5.068-0.911 10.199-4.501 13.855l-61.843 62.991 87.055 14.611c5.055 0.848 9.419 4.018 11.787 8.562l40.797 78.279 40.797-78.282c2.37-4.545 6.732-7.715 11.787-8.562l87.057-14.611-61.843-62.989zM759.529 614.271c-8.948 1.196-17.162-5.105-18.345-14.053-15.157-114.398-113.686-200.669-229.184-200.669-127.486 0-231.204 103.716-231.204 231.204s103.718 231.204 231.204 231.204c115.501 0 214.027-86.269 229.184-200.669 1.183-8.948 9.412-15.253 18.345-14.053 8.944 1.185 15.238 9.399 14.051 18.345-17.299 130.584-129.754 229.058-261.58 229.058-145.506 0-263.885-118.377-263.885-263.885s118.379-263.883 263.885-263.883c131.826 0 244.281 98.474 261.582 229.058 1.185 8.944-5.107 17.157-14.053 18.343z" />
<glyph unicode="&#xe95f;" glyph-name="light-bulb" d="M512 775.4c-148.4 0-255.6-110.6-272.6-229.4-10.6-79.2 15-156.4 68.2-214.8 46.8-50 72.4-116.8 72.4-185.6l-0.2-108.4c0-43.8 36.2-79.2 81-79.2h104.4c44.8 0 81 35.4 81 79.2l0.2 108.4c0 70.8 23.4 135.6 68.2 181.4 49 50 74.6 114.6 74.6 181.4-0.2 148.2-126 267-277.2 267zM605.6 37.2c0-20.8-17-37.6-38.4-37.6h-104.4c-21.4 0-38.4 16.6-38.4 37.6v48h181v-48zM684.8 356.2c-53.2-54.2-81-129.2-81-210.6v-18.8h-181v18.8c0 77.2-32 154.2-85.2 212.6-46.8 50-66 114.6-57.6 181.4 15 100 108 194 232.2 194 130 0 234.4-102.2 234.4-225.2 0-56.2-21.4-110.4-61.8-152.2zM490.6 938h42.6v-100h-42.6v100zM770.2 745.2l29.8-29.8 73 70.2-30 29.8zM897.6 487.6h104.4v-41.8h-104.4v41.8zM22 487.6h104.4v-41.8h-104.4v41.8zM180.2 815.6l-30-29.8 73-70.2 29.8 29.8z" />
<glyph unicode="&#xe960;" glyph-name="letter" d="M988.4-16c0 0 0 451.6 0 602 0 6.2-7.8 14-15.4 19.8l-157.4 114.2v126.2c0 12.4-10.4 20.8-20.8 20.8h-179.4l-91.4 66.6c-6.2 4.2-16.6 4.2-23 0l-91.4-66.6h-179.4c-12.4 0-20.8-10.4-20.8-20.8v-124.8l-159.4-115.8c-9.4-5.8-15.4-13.4-15.4-19.8 0-151.4 0-606 0-606 0-11.8 9.4-20 19.2-20.8 0.6 0 1 0 1.6 0h912c13.4 0.2 21 10.6 21 25zM948.8 548.6v-527.2l-344.2 275.6 344.2 251.6zM933.4 585.2l-117.8-85.8v172.4l117.8-86.6zM511.6 894.2l36.6-27h-73.4l36.8 27zM774 825.4v-356.4l-262.4-191.2-262.4 191.2v356.4h524.8zM74.4 548.6l344.2-251.6-344.2-277.2v528.8zM209.6 497.8l-120.8 88 120.8 87.8v-175.8zM111.8-1.2l340.2 273.8 47-34.4c9-6.8 15.8-6.8 25 0l47 34.4 342.2-273.8h-801.4zM372.2 723.4h281v-39.6h-281v39.6zM372.2 596.4h281v-39.6h-281v39.6zM372.2 469.4h281v-39.6h-281v39.6z" />
<glyph unicode="&#xe961;" glyph-name="magnifying-glass" d="M990 27.6l-235.6 235.6c58.4 71.2 93.6 162.4 93.6 261.8 0 228-185 413-413 413-228.2 0-413-185-413-413s184.8-413 413-413c99.4 0 190.4 35 261.6 93.4l235.6-235.4c16-16 41.8-16 57.8 0 16 15.8 16 41.8 0 57.6zM435 194.2c-182.6 0-331 148.4-331 330.8s148.4 331 331 331c182.4 0 331-148.6 331-331s-148.6-330.8-331-330.8z" />
<glyph unicode="&#xe962;" glyph-name="technology-3" d="M799.4 39.6h-574.8v431.2h574.6v-431.2h0.2zM331.4 675.6c0 99.6 81 180.6 180.6 180.6s180.6-81 180.6-180.6v-123.2h-361.2v123.2zM840.2 552.4h-65.8v123.2c0 144.8-117.8 262.4-262.4 262.4s-262.4-117.6-262.4-262.4v-123.2h-65.8c-22.6 0-40.8-18.2-40.8-40.8v-512.8c0-22.6 18.2-40.8 40.8-40.8h656.2c22.6 0 40.8 18.2 40.8 40.8v512.8c0.2 22.6-18.2 40.8-40.6 40.8zM512 120c22.6 0 40.8 18.2 40.8 40.8v73.4c0 22.6-18.2 40.8-40.8 40.8s-40.8-18.2-40.8-40.8v-73.4c0-22.4 18.2-40.8 40.8-40.8z" />
<glyph unicode="&#xe963;" glyph-name="search" d="M990 27.8l-238.4 238.4c58.2 71 93 161.6 93 260.6 0 227-184.2 411.2-411.2 411.2-227.2 0-411.4-184.2-411.4-411.4s184.2-411.4 411.4-411.4c98.8 0 189.6 34.8 260.6 93l238.2-238.2c16-16 41.8-16 57.8 0s16 41.8 0 57.8zM103.6 526.6c0 182 147.6 329.6 329.6 329.6s329.6-147.6 329.6-329.6-147.6-329.6-329.6-329.6c-182 0-329.6 147.6-329.6 329.6z" />
<glyph unicode="&#xe964;" glyph-name="rocket-launch" d="M700.6 449.8c15.8 175.2-45.4 353.8-173.8 482.2-7.8 7.8-21.6 7.8-29.4 0-128.4-128.4-189.6-306.8-173.8-482.2-44.4-47.8-68.8-109.4-68.8-175 0-66.2 25.2-129.2 71-177.2 11.2-11.8 39.8-6.4 35.2 19.6-2.4 13.6-5.4 26.8-5.4 39.8 0 32.4 9.8 63.2 28 89.2 3-1.6 6.4-2.6 10-2.6h237c3.6 0 7 1 10 2.6 18.2-26 28-56.8 28-89.2 0-13-3.4-26-5.4-39.8-4.2-28.8 25.8-29.8 35.2-19.6 45.6 48.2 71 111 71 177.2-0.2 65.6-24.4 127.4-68.8 175zM512 887.2c37.2-40 67.6-85 91.2-132.8h-182.2c23.4 48 53.8 92.8 91 132.8zM316 185.2c-12.8 27.8-19.4 58.2-19.4 89.6 0 42.4 12.2 83 35 117.8 0.2-1.6 22-85 30.4-106.4-25-28.8-40.8-63.6-46-101zM616.8 285.4h-209.6c-58.8 138-58.2 292.2-4.8 427.6h219.2c53.4-135.4 54-289.6-4.8-427.6zM662.2 286.2c11.6 29.8 30.2 105.2 30.4 106.4 22.8-34.6 35-75.2 35-117.8 0-31.4-6.8-61.8-19.4-89.6-5.4 37.4-21.2 72.2-46 101zM427.8 208.8c-11.6 0-20.8-9.4-20.8-20.8v-104.6c0-11.6 9.4-20.8 20.8-20.8s20.8 9.4 20.8 20.8v104.6c0 11.6-9.4 20.8-20.8 20.8zM512 208.8c-5.8 0-11-2.4-14.8-6.2 0 0 0 0-0.2-0.2-2.4-2.4-4.2-5.6-5.2-9.2-0.4-1.8-0.8-3.6-0.8-5.6v-209c0-1.6 0.2-3.2 0.6-4.8 2.2-9.2 10.4-16 20.2-16s18 6.8 20.2 16c0.4 1.6 0.6 3.2 0.6 4.8v209.4c0 2-0.2 3.8-0.8 5.6-2.2 8.8-10.2 15.2-19.8 15.2zM596.2 208.8c-11.6 0-20.8-9.4-20.8-20.8v-104.6c0-11.6 9.4-20.8 20.8-20.8s20.8 9.4 20.8 20.8v104.6c0.2 11.6-9.2 20.8-20.8 20.8z" />
<glyph unicode="&#xe965;" glyph-name="multimedia" d="M708.4 465.2l-270.2 184.8c-8.4 6.2-30.8 6.2-32.6-17.2v-369.6c2-23.4 24.8-23.8 32.6-17.2l270.2 184.8c7 4.2 16.6 21.4 0 34.4zM447.4 302.6v290.8l212.2-145.4-212.2-145.4zM512 938c-270.2 0-490-219.8-490-490s219.8-490 490-490 490 219.8 490 490-219.8 490-490 490zM512-0.2c-247.2 0-448.2 201-448.2 448.2s201 448.2 448.2 448.2 448.2-201 448.2-448.2-201-448.2-448.2-448.2z" />
<glyph unicode="&#xe966;" glyph-name="search-1" d="M409.6 192.397c87.318 0 166.698 30.958 228.614 83.349l277.829-277.829c6.35-6.35 14.288-9.526 23.020-9.526s16.67 3.175 23.020 9.526c12.701 12.701 12.701 33.34 0 46.040l-277.829 277.829c51.597 61.916 83.349 142.090 83.349 228.614 0 197.656-160.347 358.003-358.003 358.003-196.862 0-358.003-161.141-358.003-358.003 0-197.656 161.141-358.003 358.003-358.003zM409.6 843.312c161.935 0 292.912-131.771 292.912-292.912 0-161.935-130.977-292.912-292.912-292.912s-292.912 131.771-292.912 292.912c0 161.141 131.771 292.912 292.912 292.912z" />
<glyph unicode="&#xe967;" glyph-name="bag" d="M866.034 667.882c-2.381 15.876-15.876 26.989-31.752 26.989h-182.574v74.617c0 76.998-62.71 139.709-139.709 139.709s-139.709-62.71-139.709-139.709v-74.617h-182.574c-15.876 0-29.371-11.113-31.752-26.989l-106.369-642.977c-1.588-9.526 0.794-19.051 7.144-26.195s15.082-11.113 24.608-11.113h857.302c0 0 0 0 0.794 0 18.257 0 32.546 14.288 32.546 32.546 0 3.969-0.794 7.144-1.588 10.319l-106.369 637.42zM437.383 769.488c0 41.278 33.34 74.617 74.617 74.617s74.617-33.34 74.617-74.617v-74.617h-149.234v74.617zM121.451 51.895l96.050 577.885h154.791v-181.78c0-18.257 14.288-32.546 32.546-32.546s32.546 14.288 32.546 32.546v181.78h149.234v-181.78c0-18.257 14.288-32.546 32.546-32.546s32.546 14.288 32.546 32.546v181.78h154.791l96.050-577.885h-781.098z" />
<glyph unicode="&#xe968;" glyph-name="correct" d="M321.488 474.989c-12.701 12.701-33.34 12.701-46.040 0s-12.701-33.34 0-46.040l150.028-150.028c6.35-6.35 14.288-9.526 23.020-9.526 0.794 0 0.794 0 1.588 0 8.732 0.794 17.464 4.763 23.814 11.907l375.467 450.084c11.113 13.495 9.526 34.133-3.969 46.040-13.495 11.113-34.133 9.526-46.040-3.969l-353.24-423.095-124.626 124.626zM754.902 838.549c-182.574 114.307-416.744 87.318-569.153-65.091-179.398-179.398-179.398-472.31 0-651.709 89.699-89.699 207.975-134.946 325.457-134.946s235.758 45.247 325.457 134.946c153.203 153.203 179.398 388.167 64.298 570.741-9.526 15.082-29.371 19.845-44.453 10.319s-19.845-29.371-10.319-44.453c99.225-157.172 76.205-358.797-55.566-490.567-153.997-153.997-405.631-153.997-559.628 0s-153.997 405.631 0 559.628c131.771 130.977 332.602 153.997 489.774 56.36 15.082-9.526 34.927-4.763 44.453 10.319s4.763 34.927-10.319 44.453z" />
<glyph unicode="&#xe969;" glyph-name="video-camera" d="M766.809 747.262h-683.46c-17.464 0-32.546-14.288-32.546-32.546v-533.433c0-17.464 14.288-32.546 32.546-32.546h683.46c17.464 0 32.546 14.288 32.546 32.546v153.997l118.276-118.276c6.35-6.35 14.288-9.526 23.020-9.526 3.969 0 8.732 0.794 12.701 2.381 11.907 4.763 19.845 16.67 19.845 30.164v416.744c0 12.701-7.938 24.608-19.845 30.164-11.907 4.763-26.195 2.381-34.927-7.144l-118.276-118.276v153.203c-0.794 18.257-15.082 32.546-33.34 32.546zM734.264 482.927v-269.891h-619.163v469.929h619.163v-200.037zM908.105 578.183v-261.16l-108.75 108.75v42.865l108.75 109.544z" />
<glyph unicode="&#xe96a;" glyph-name="stats" d="M939.857 51.895h-823.963v823.963c0 18.257-14.288 32.546-32.546 32.546s-32.546-14.288-32.546-32.546v-856.509c0-18.257 14.288-32.546 32.546-32.546h856.509c18.257 0 32.546 14.288 32.546 32.546s-14.288 32.546-32.546 32.546zM431.033 177.315v468.341c0 18.257-14.288 32.546-32.546 32.546s-32.546-14.288-32.546-32.546v-468.341c0-18.257 14.288-32.546 32.546-32.546s32.546 14.288 32.546 32.546zM273.86 177.315v468.341c0 18.257-14.288 32.546-32.546 32.546s-32.546-14.288-32.546-32.546v-468.341c0-18.257 14.288-32.546 32.546-32.546s32.546 14.288 32.546 32.546zM745.377 177.315v468.341c0 18.257-14.288 32.546-32.546 32.546s-32.546-14.288-32.546-32.546v-468.341c0-18.257 14.288-32.546 32.546-32.546s32.546 14.288 32.546 32.546zM902.549 177.315v234.171c0 18.257-14.288 32.546-32.546 32.546s-32.546-14.288-32.546-32.546v-234.171c0-18.257 14.288-32.546 32.546-32.546s32.546 14.288 32.546 32.546zM588.205 177.315v234.171c0 18.257-14.288 32.546-32.546 32.546s-32.546-14.288-32.546-32.546v-234.171c0-18.257 14.288-32.546 32.546-32.546s32.546 14.288 32.546 32.546z" />
<glyph unicode="&#xe96b;" glyph-name="arrows-4" d="M1024 480.253h-900.515l202.973 202.975-45.614 45.614-280.844-280.842 280.844-280.846 45.614 45.616-202.973 202.973h900.515z" />
<glyph unicode="&#xe96c;" glyph-name="arrows-5" d="M743.156 728.843l-45.612-45.614 202.973-202.975h-900.517v-64.509h900.517l-202.973-202.973 45.612-45.614 280.844 280.844z" />
<glyph unicode="&#xe96d;" glyph-name="arrows-6" d="M1024 480.256h-900.517l73.955 73.955-45.614 45.614-151.824-151.824 151.824-151.826 45.614 45.614-73.955 73.957h900.517z" />
<glyph unicode="&#xe96e;" glyph-name="arrows-7" d="M872.174 599.825l-45.612-45.614 73.955-73.955h-900.517v-64.509h900.517l-73.955-73.957 45.612-45.614 151.826 151.826z" />
<glyph unicode="&#xe96f;" glyph-name="arrows-8" d="M1024 448.003l-163.881 163.879v-131.626h-860.119v-64.509h860.119v-131.628z" />
<glyph unicode="&#xe970;" glyph-name="menu" d="M81.485 719.618c0-22.502-18.241-40.743-40.743-40.743s-40.743 18.241-40.743 40.743c0 22.502 18.241 40.743 40.743 40.743s40.743-18.241 40.743-40.743zM203.714 760.361h820.286v-81.485h-820.286v81.485zM81.485 176.382c0-22.502-18.241-40.743-40.743-40.743s-40.743 18.241-40.743 40.743c0 22.502 18.241 40.743 40.743 40.743s40.743-18.241 40.743-40.743zM203.714 217.125h820.286v-81.485h-820.286v81.485zM81.485 448c0-22.502-18.241-40.743-40.743-40.743s-40.743 18.241-40.743 40.743c0 22.502 18.241 40.743 40.743 40.743s40.743-18.241 40.743-40.743zM203.714 488.743h820.286v-81.485h-820.286v81.485z" />
<glyph unicode="&#xe971;" glyph-name="checked" d="M970.607 802.67l-602.559-602.554-314.655 314.65-53.393-53.393 368.048-368.043 655.952 655.947z" />
<glyph unicode="&#xe972;" glyph-name="line-2" d="M0 481.758h1024v-67.516h-1024v67.516z" />
<glyph unicode="&#xe973;" glyph-name="truck" d="M968.22 637.010c-34.112 36.901-82.598 57.068-136.448 57.068h-140.524v78.951c0 14.16-11.585 25.745-25.745 25.745h-639.759c-14.16 0-25.745-11.585-25.745-25.745v-566.171c0-14.16 11.585-25.745 25.745-25.745h102.55c8.367-47.628 49.773-83.885 99.761-83.885s91.394 36.257 99.761 83.885h394.11c8.367-47.628 49.773-83.885 99.761-83.885s91.394 36.257 99.761 83.885h76.805c14.16 0 25.745 11.585 25.745 25.745v266.030c-0.215 68.009-19.309 124.862-55.78 164.123zM51.49 747.283h588.269v-514.896h-316.447c-13.945 39.046-51.49 67.151-95.256 67.151s-81.311-28.105-95.256-67.151h-81.311v514.896zM228.056 148.717c-27.461 0-49.773 22.312-49.773 49.773s22.312 49.773 49.773 49.773 49.773-22.312 49.773-49.773-22.312-49.773-49.773-49.773zM821.689 148.717c-27.461 0-49.773 22.312-49.773 49.773s22.312 49.773 49.773 49.773c27.461 0 49.773-22.312 49.773-49.773s-22.312-49.773-49.773-49.773zM972.296 232.602h-55.351c-13.945 39.046-51.49 67.151-95.256 67.151s-81.311-28.105-95.256-67.151h-34.97v409.986h140.524c86.674 0 140.524-65.006 140.524-169.701v-240.285h-0.215z" />
<glyph unicode="&#xe974;" glyph-name="coin" d="M550.128 474.145h-76.037c-31.591 0-57.3 25.709-57.3 57.3s25.709 57.3 57.3 57.3h134.209c14.38 0 26.145 11.765 26.145 26.145s-11.765 26.145-26.145 26.145h-69.937v53.379c0 14.38-11.765 26.145-26.145 26.145s-26.145-11.765-26.145-26.145v-53.379h-11.983c-60.351 0-109.59-49.239-109.59-109.59s49.239-109.59 109.59-109.59h76.037c31.591 0 57.3-25.709 57.3-57.3s-25.709-57.3-57.3-57.3h-136.606c-14.38 0-26.145-11.765-26.145-26.145s11.765-26.145 26.145-26.145h72.334v-54.468c0-14.38 11.765-26.145 26.145-26.145s26.145 11.765 26.145 26.145v54.468h12.637c0.218 0 0.436 0 0.654 0 59.697 0.871 108.065 49.675 108.065 109.59 0 60.569-49.021 109.59-109.372 109.59zM874.104 810.104c-96.735 96.735-225.28 149.896-362.104 149.896s-265.369-53.161-362.104-149.896-149.896-225.28-149.896-362.104 53.161-265.369 149.896-362.104 225.28-149.896 362.104-149.896 265.369 53.161 362.104 149.896 149.896 225.28 149.896 362.104-53.161 265.369-149.896 362.104zM512-11.711c-253.386 0-459.711 206.325-459.711 459.711s206.325 459.711 459.711 459.711 459.711-206.325 459.711-459.711-206.325-459.711-459.711-459.711z" />
<glyph unicode="&#xe975;" glyph-name="headphones" d="M862.333 570.622v39.368c0 94.225-33.345 181.782-93.795 246.75-61.956 66.689-147.146 103.261-240.081 103.261h-32.484c-92.934 0-178.124-36.571-240.081-103.261-60.45-64.968-93.795-152.524-93.795-246.75v-39.368c-73.358-4.948-131.657-66.044-131.657-140.692v-61.526c0-77.661 63.247-140.908 140.908-140.908h79.382c14.198 0 25.815 11.617 25.815 25.815v291.926c0 14.198-11.617 25.815-25.815 25.815h-37.002v38.938c0 170.165 121.331 298.38 282.030 298.38h32.484c160.914 0 282.030-128.215 282.030-298.38v-38.938h-37.002c-14.198 0-25.815-11.617-25.815-25.815v-291.711c0-14.198 11.617-25.815 25.815-25.815h36.141c-10.541-134.669-103.261-165.862-146.286-172.961-11.832 36.356-46.037 62.602-86.266 62.602h-64.538c-49.909 0-90.568-40.659-90.568-90.568s40.659-90.783 90.568-90.783h64.753c41.734 0 76.8 28.397 87.341 66.689 21.082 3.012 54.427 10.541 87.556 29.903 46.682 27.321 101.97 83.039 109.284 195.334 73.788 4.518 132.303 65.829 132.303 140.692v61.526c0.215 74.434-57.869 135.745-131.227 140.477zM225.345 279.341h-53.566c-49.264 0-89.277 40.013-89.277 89.277v61.526c0 49.264 40.013 89.277 89.277 89.277h53.566v-240.081zM577.076-12.37h-64.753c-21.513 0-38.938 17.425-38.938 38.938s17.425 38.938 38.938 38.938h64.753c21.513 0 38.938-17.425 38.938-38.938s-17.425-38.938-38.938-38.938zM942.145 368.618c0-49.264-40.013-89.277-89.277-89.277h-53.566v240.081h53.566c49.264 0 89.277-40.013 89.277-89.277v-61.526z" />
<glyph unicode="&#xe976;" glyph-name="shopping-bag" d="M921.091 72.505l-58.926 664.084c-1.060 13.142-12.082 23.104-25.436 23.104h-124.211c-0.212 110.433-90.085 200.306-200.518 200.306s-200.306-89.873-200.518-200.306h-124.211c-13.142 0-24.164-9.962-25.436-23.104l-58.926-664.084c0-0.848 0-1.484 0-2.332 0-73.976 68.041-134.173 151.555-134.173h515.073c83.514 0 151.555 60.198 151.555 134.173 0 0.848 0 1.484 0 2.332zM512 909.129c82.454 0 149.435-66.981 149.647-149.435h-299.294c0.212 82.454 67.193 149.435 149.647 149.435zM769.537-12.917h-515.073c-55.111 0-100.047 36.67-100.683 82.242l56.806 639.497h100.895v-89.237c0-13.99 11.446-25.436 25.436-25.436s25.436 11.446 25.436 25.436v89.237h299.294v-89.237c0-13.99 11.446-25.436 25.436-25.436s25.436 11.446 25.436 25.436v89.237h100.895l56.806-639.709c-0.636-45.36-45.572-82.030-100.683-82.030z" />
<glyph unicode="&#xe977;" glyph-name="money" d="M546.488 317.286h-58.545c-21.289 0-38.533 17.244-38.533 38.533s17.244 38.533 38.533 38.533h103.039c14.051 0 25.547 11.496 25.547 25.547s-11.496 25.547-25.547 25.547h-48.326v35.553c0 14.051-11.496 25.547-25.547 25.547s-25.547-11.496-25.547-25.547v-35.553h-3.619c-49.39 0-89.627-40.236-89.627-89.627s40.236-89.627 89.627-89.627h58.545c21.289 0 38.533-17.244 38.533-38.533s-17.244-38.533-38.533-38.533h-104.955c-14.051 0-25.547-11.496-25.547-25.547s11.496-25.547 25.547-25.547h50.242v-36.404c0-14.051 11.496-25.547 25.547-25.547s25.547 11.496 25.547 25.547v36.404h4.258c0.213 0 0.426 0 0.639 0 48.965 0.639 88.349 40.662 88.349 89.627 0 49.39-40.236 89.627-89.627 89.627zM901.163 375.192c-26.824 61.738-63.867 121.56-110.703 177.55-56.629 68.125-113.044 113.683-141.785 134.759l108.574 201.394c5.322 10.006 3.619 22.353-4.684 30.23-28.101 27.463-57.906 40.875-91.117 40.875-30.443 0-58.332-11.496-82.601-21.715-19.16-7.877-37.256-15.541-51.945-15.541-4.471 0-8.303 0.639-12.135 2.129-50.668 18.521-89.627 30.017-127.308 30.017-47.687 0-88.349-19.16-128.16-60.035-8.303-8.516-9.58-21.928-2.98-31.933l117.089-176.911c-28.953-21.502-84.304-66.635-139.869-133.269-46.623-55.99-83.879-115.812-110.703-177.55-33.637-77.705-50.668-158.816-50.668-240.991 0-109.212 88.988-198.2 198.2-198.2h483.26c109.212 0 198.2 88.988 198.2 198.2 0 82.175-17.031 163.286-50.668 240.991zM310.819 873.567c24.695 21.289 48.326 30.656 76.64 30.656 30.23 0 64.293-10.219 109.638-27.037 9.367-3.406 19.373-5.109 29.592-5.109 24.908 0 48.752 9.793 71.531 19.373 21.928 9.154 42.791 17.883 63.015 17.883 9.793 0 23.631-1.703 41.088-14.051l-102.187-189.898h-177.976l-111.341 168.183zM753.63-12.906h-483.26c-81.111 0-147.107 65.996-147.107 147.107 0 136.462 50.029 265.899 148.384 384.692 62.164 75.15 125.392 121.773 144.552 135.398h191.175c19.373-13.412 82.388-60.248 144.552-135.398 98.568-118.793 148.384-248.017 148.384-384.692 0.426-81.111-65.57-147.107-146.681-147.107z" />
</font>
</defs>
</svg>
