<?xml version="1.0" encoding="UTF-8" standalone="no"?>
<!-- Created with Inkscape (http://www.inkscape.org/) -->

<svg
   xmlns:dc="http://purl.org/dc/elements/1.1/"
   xmlns:cc="http://creativecommons.org/ns#"
   xmlns:rdf="http://www.w3.org/1999/02/22-rdf-syntax-ns#"
   xmlns:svg="http://www.w3.org/2000/svg"
   xmlns="http://www.w3.org/2000/svg"
   xmlns:sodipodi="http://sodipodi.sourceforge.net/DTD/sodipodi-0.dtd"
   xmlns:inkscape="http://www.inkscape.org/namespaces/inkscape"
   width="180mm"
   height="115mm"
   viewBox="0 0 180 115"
   version="1.1"
   id="svg8"
   inkscape:version="0.92.5 (2060ec1f9f, 2020-04-08)"
   sodipodi:docname="logo.svg">
  <defs
     id="defs2" />
  <sodipodi:namedview
     id="base"
     pagecolor="#ffffff"
     bordercolor="#666666"
     borderopacity="1.0"
     inkscape:pageopacity="0.0"
     inkscape:pageshadow="2"
     inkscape:zoom="0.7"
     inkscape:cx="371.17451"
     inkscape:cy="202.85714"
     inkscape:document-units="mm"
     inkscape:current-layer="layer1"
     showgrid="false"
     showborder="true"
     inkscape:window-width="1600"
     inkscape:window-height="801"
     inkscape:window-x="0"
     inkscape:window-y="32"
     inkscape:window-maximized="1" />
  <metadata
     id="metadata5">
    <rdf:RDF>
      <cc:Work
         rdf:about="">
        <dc:format>image/svg+xml</dc:format>
        <dc:type
           rdf:resource="http://purl.org/dc/dcmitype/StillImage" />
        <dc:title></dc:title>
      </cc:Work>
    </rdf:RDF>
  </metadata>
  <g
     inkscape:label="Layer 1"
     inkscape:groupmode="layer"
     id="layer1"
     transform="translate(0,-182)">
    <path
       style="fill:#e51b23;fill-opacity:1;stroke-width:1"
       d="m 3.6536974,292.68288 c -0.196427,-0.51204 -0.357253,-1.94666 -0.357253,-3.18805 0,-1.28153 -0.317975,-2.36383 -0.735707,-2.50409 -0.579682,-0.19465 -0.566956,-0.56385 0.06006,-1.74096 0.549758,-1.03222 0.731679,-3.10314 0.588576,-6.70065 -0.178631,-4.48806 -0.07188,-5.23396 0.772564,-5.40431 0.591735,-0.11945 1.138187,0.30171 1.379922,1.06331 l 0.400181,1.26093 1.386059,-1.30213 c 2.732546,-2.56708 8.3284476,-1.48587 9.7219986,1.87843 2.042842,4.93187 -1.833822,10.16356 -8.4510146,11.40496 -2.160937,0.40539 -2.179734,0.43373 -2.179734,3.28622 0,2.43074 -0.172838,2.87731 -1.114155,2.87731 -0.61278,0 -1.274922,-0.41894 -1.471415,-0.93097 z m 8.0123186,-8.87047 c 1.994925,-1.00284 2.813134,-2.48507 2.813134,-5.09615 0,-2.49085 -1.100296,-3.4864 -3.581892,-3.24088 -2.6269466,0.25991 -4.1948116,2.55534 -4.5332916,6.63694 l -0.270452,3.26137 1.985711,-0.37821 c 1.09214,-0.20799 2.7061826,-0.74038 3.5867906,-1.18307 z m 81.532236,9.11109 c -0.95052,-0.34368 -1.7672,-1.17317 -1.97664,-2.00763 -0.4392,-1.74996 -0.40219,-1.75096 -2.36018,0.0636 -2.29396,2.12597 -4.118418,2.43339 -6.03446,1.01682 -1.581239,-1.16909 -1.609956,-1.16946 -3.005402,-0.0396 -2.363477,1.91384 -5.408714,0.61418 -6.895587,-2.94289 -1.022037,-2.44509 -2.566592,-2.29868 -3.241878,0.30733 -0.866109,3.34246 -5.209801,4.92216 -7.59612,2.76256 -0.953509,-0.86291 -1.152447,-0.86291 -2.384417,0 -1.692613,1.18553 -3.397394,1.19759 -5.05617,0.0358 -1.163942,-0.81526 -1.468052,-0.81526 -3.044548,0 -2.220424,1.14821 -5.303141,1.16123 -6.919325,0.0291 -1.108329,-0.77628 -1.49123,-0.77628 -3.349166,0 -2.732881,1.14188 -6.239632,1.11642 -7.915565,-0.0574 -1.21766,-0.85289 -1.457106,-0.85289 -2.758768,0 -0.783978,0.51373 -2.352376,0.934 -3.485377,0.934 -2.697083,0 -3.635479,-1.54923 -2.684226,-4.43154 0.366598,-1.1108 0.499667,-2.28967 0.295683,-2.61972 -0.604108,-0.97746 -2.666118,-0.68374 -3.0183,0.42993 -1.497196,4.73454 -3.214859,6.81063 -4.539159,5.4863 -0.38771,-0.38768 -0.0681,-1.72773 0.947519,-3.97242 1.07779,-2.38223 1.354511,-3.60195 0.93257,-4.11037 -1.021192,-1.23046 -0.352847,-3.41676 1.107959,-3.62423 0.971101,-0.13792 1.476322,0.21444 1.898239,1.32426 0.46194,1.21495 0.968614,1.51221 2.57743,1.51221 2.771207,0 3.736547,1.27804 2.839382,3.75906 -1.359204,3.75887 -0.573651,4.8621 2.119076,2.97605 0.926703,-0.64909 1.308087,-1.5149 1.308087,-2.96956 0,-2.48705 2.179775,-4.94267 4.387473,-4.94267 1.664232,0 3.852418,1.85527 3.852418,3.26634 0,1.27879 -1.678402,4.38498 -2.369368,4.38498 -0.315416,0 -0.573454,0.26485 -0.573454,0.58856 0,0.8746 2.172908,0.71259 4.149167,-0.30939 1.316785,-0.68094 1.736453,-1.31013 1.736453,-2.60339 0,-2.19663 2.596474,-5.3271 4.418422,-5.3271 2.263549,0 3.232918,0.63655 3.232918,2.12295 0,1.4979 -1.084313,1.8544 -2.211611,0.72709 -1.004692,-1.00469 -2.496907,0.44627 -2.496907,2.42788 0,3.08575 3.561191,4.58294 6.314265,2.65462 1.014144,-0.71035 1.315587,-1.59425 1.455211,-4.26708 0.155944,-2.98453 0.328002,-3.39276 1.500403,-3.55926 1.449049,-0.20576 1.469315,-0.13902 1.334516,4.39575 -0.09788,3.29301 0.46276,4.04226 2.619669,3.5009 1.071693,-0.26896 1.477487,-0.88974 1.789736,-2.73794 0.456311,-2.70087 2.358267,-5.15101 4.114501,-5.30036 2.361697,-0.20087 3.10588,0.0588 3.400628,1.18578 0.165503,0.63267 1.008138,1.32785 1.872622,1.54483 1.223158,0.30697 1.929204,0.052 3.182868,-1.14898 2.080848,-1.99356 2.969267,-1.19424 2.573664,2.31554 -0.336232,2.98303 0.479064,4.37816 2.558517,4.37816 1.694911,0 2.594316,-1.56078 2.606197,-4.52266 0.01108,-2.73278 0.732344,-4.01038 1.991562,-3.52717 0.729142,0.2798 0.94225,1.21986 0.94225,4.15666 0,2.5022 0.250629,3.88546 0.735683,4.0604 1.42781,0.51488 4.07773,-1.68409 6.76216,-5.61143 2.04077,-2.98565 3.05529,-3.9728 4.083,-3.9728 1.31214,0 1.63736,0.53098 1.39521,2.27794 -0.0616,0.44358 0.2042,1.56922 0.59022,2.50139 0.76251,1.84084 1.94271,2.11193 4.373168,1.00456 1.04622,-0.47671 1.70396,-0.50142 2.1255,-0.0798 0.84015,0.84014 -0.89384,2.49788 -3.06757,2.93263 -0.932108,0.18642 -1.694748,0.65249 -1.694748,1.03572 0,2.16294 -2.85941,3.52068 -5.4454,2.58566 z m 2.98115,-2.98816 c 0.14482,-0.75988 -0.19175,-1.02998 -1.28351,-1.02998 -1.60893,0 -2.43244,0.81291 -1.82279,1.79934 0.59165,0.95729 2.8855,0.38915 3.1063,-0.76936 z m -29.868027,0.12635 c 1.334695,-0.71431 1.4905,-2.65414 0.308138,-3.83649 -0.456665,-0.45666 -0.947659,-1.1661 -1.09114,-1.57651 -0.441575,-1.26325 -2.787059,1.30599 -2.787059,3.05296 0,1.53525 0.928279,2.96931 1.922091,2.96931 0.280241,0 1.021848,-0.27417 1.64797,-0.60927 z m -30.761674,-1.86261 c 1.002558,-1.00255 0.892464,-3.41368 -0.155936,-3.41368 -1.069798,0 -2.283552,2.15377 -1.850198,3.28311 0.392403,1.02259 1.069938,1.06668 2.006044,0.13057 z m 59.392091,-1.30537 c 0.2969,-0.23918 -0.59693,-2.69686 -0.9808,-2.69686 -0.38918,0 -1.79152,2.58661 -1.79152,3.30445 0,0.2509 2.34446,-0.26293 2.77232,-0.60759 z m 20.249998,5.12366 c -2.12255,-1.0456 -4.15464,-4.56805 -4.1721,-7.23197 -0.0523,-7.9728 9.01946,-14.72412 14.25306,-10.60737 2.50256,1.96852 2.41562,6.48744 -0.12479,6.48744 -1.14762,0 -1.45795,-0.56785 -1.23001,-2.25079 0.18063,-1.33331 -1.21012,-2.45772 -3.03982,-2.45772 -3.78405,0 -7.00752,5.3975 -6.10299,10.21906 0.84306,4.49385 5.79749,5.70128 9.333,2.27454 3.23065,-3.13128 5.40302,-2.12236 2.73457,1.27003 -2.58246,3.28306 -7.62924,4.27796 -11.65092,2.29678 z m 23.76298,0.0356 c -0.66868,-0.6687 -0.93382,-1.81756 -0.84894,-3.67853 0.18308,-4.01224 0.0985,-4.27829 -1.29367,-4.07135 -1.70723,0.2538 -3.50235,2.79893 -3.70142,5.24793 -0.23321,2.86904 -0.24031,2.88577 -1.22785,2.88577 -1.49281,0 -2.04544,-2.67511 -2.04448,-9.89676 8.2e-4,-7.42521 0.95108,-10.78675 3.16565,-11.20058 2.35754,-0.44051 2.85691,3.84257 0.94045,8.06607 -0.6403,1.41113 -1.16419,3.09 -1.16419,3.73085 0,1.0785 0.13747,1.04956 1.84728,-0.38924 1.39558,-1.17429 2.36703,-1.5109 3.97281,-1.37658 l 2.1255,0.17774 0.17284,4.26708 c 0.14637,3.61159 0.3317,4.26706 1.20654,4.26706 1.6564,0 2.44619,-1.23684 2.44619,-3.83086 0,-2.69326 1.13573,-4.71886 2.40558,-4.29047 0.60068,0.20266 0.83151,1.32803 0.83151,4.05378 0,3.5046 0.0977,3.78713 1.3728,3.96771 0.75506,0.10701 1.85666,-0.24342 2.44801,-0.77861 0.86949,-0.78687 0.97282,-1.33006 0.54004,-2.83908 -1.24734,-4.34918 -0.1001,-12.08218 2.16372,-14.58357 1.21575,-1.34337 3.35026,-1.45993 4.36411,-0.23831 1.95335,2.35362 0.98634,9.93877 -1.93353,15.16655 -1.15388,2.06595 -1.17199,2.28556 -0.2632,3.19432 0.80591,0.80594 1.23876,0.8561 2.48554,0.28803 1.54644,-0.70461 1.70011,-0.95728 2.33411,-3.83816 0.52429,-2.38229 3.03928,-4.51119 5.32928,-4.51119 h 1.89496 l 0.29843,-4.17114 c 0.29862,-4.17364 1.39898,-6.40761 2.74607,-5.57507 0.89022,0.55018 0.77292,6.16262 -0.24677,11.80617 -0.46789,2.58968 -0.85593,4.75581 -0.86232,4.81359 -0.007,0.0579 0.41075,0.52744 0.92693,1.0436 0.85894,0.85897 1.10837,0.83352 2.94286,-0.30026 1.86308,-1.15146 2.03206,-1.16661 2.39716,-0.21511 0.26861,0.69999 -0.11389,1.45954 -1.20999,2.4023 -1.85231,1.59329 -3.99617,1.77837 -5.31567,0.45887 -0.834,-0.83401 -1.04226,-0.83401 -2.23296,0 -1.62719,1.13971 -3.36964,1.1737 -4.90865,0.0957 -1.00845,-0.70634 -1.33743,-0.70634 -2.30342,0 -1.49274,1.09151 -3.85693,1.04431 -5.50478,-0.10989 -1.03108,-0.72218 -1.52082,-0.77837 -2.16012,-0.24779 -1.42118,1.17948 -4.3881,1.33783 -5.94558,0.31735 -1.30592,-0.85568 -1.57168,-0.85972 -2.7397,-0.0416 -1.69188,1.18504 -4.23071,1.15413 -5.45122,-0.0663 z m 28.89635,-3.43757 c 2.05656,-3.13871 -0.82246,-6.16326 -2.96075,-3.11041 -0.94526,1.34955 -1.21382,3.49518 -0.52385,4.18515 0.84994,0.84993 2.5714,0.31897 3.4846,-1.07474 z m -11.20353,-7.08475 c 1.01708,-3.49862 0.95328,-6.82478 -0.1377,-7.18262 -1.48049,-0.48558 -2.43635,4.24271 -2.02783,10.03074 0.13169,1.86553 1.20606,0.45253 2.16559,-2.84812 z M 53.324312,279.1941 c -0.901809,-1.0866 0.144818,-2.64853 1.77477,-2.64853 1.429717,0 1.900979,1.53724 0.806705,2.63151 -1.127996,1.12797 -1.656577,1.13146 -2.581475,0.0178 z m 92.028668,0 c -0.52825,-1.37654 0.21756,-2.64853 1.55285,-2.64853 1.49742,0 2.14886,1.47766 1.17091,2.65602 -0.93461,1.12613 -2.29018,1.12239 -2.72376,-0.007 z m -66.573335,-24.02027 -9.564134,-3.62884 v -32.52477 -32.52479 h 19.716861 19.716858 v 32.33624 c 0,19.83326 -0.21667,32.4701 -0.56026,32.68247 -0.80901,0.5 -19.046198,7.38278 -19.426208,7.33152 -0.17551,-0.0236 -4.622825,-1.676 -9.883117,-3.67183 z m 2.935684,-26.3177 c 0.995904,-2.41911 1.852773,-4.45999 1.904161,-4.53529 0.05136,-0.0754 0.905608,0.16973 1.898262,0.54433 1.58075,0.59668 2.22174,0.47727 5.16282,-0.96167 7.28601,-3.5647 12.536388,-15.53792 7.90133,-18.01854 -1.77897,-0.95209 -3.79418,-0.23469 -6.59437,2.34755 l -2.4666,2.2746 v -2.09936 c 0,-1.7618 -0.24592,-2.16603 -1.52954,-2.51412 -2.68476,-0.72805 -7.593184,1.64321 -7.593184,3.66825 0,0.26183 0.397269,0.47607 0.882831,0.47607 0.485563,0 0.882856,-0.25805 0.882856,-0.57346 0,-1.43279 5.395457,-3.05006 6.142577,-1.84121 0.17951,0.2905 -1.92368,5.91338 -4.673772,12.49532 -2.750111,6.58193 -5.000187,12.32555 -5.000187,12.76357 0,1.88512 1.404299,0.0512 3.082816,-4.02604 z m 3.540943,-5.95567 c -0.506875,-0.50686 -0.382372,-1.24694 0.50113,-2.97873 5.00348,-9.80762 12.10788,-15.9631 12.79593,-11.08676 0.91716,6.49988 -9.66694,17.69561 -13.29706,14.06549 z"
       id="path826"
       inkscape:connector-curvature="0" />
  </g>
</svg>
